<svg width="46" height="46" viewBox="0 0 46 46" fill="none" xmlns="http://www.w3.org/2000/svg">
<g opacity="0.4">
<path fill-rule="evenodd" clip-rule="evenodd" d="M32.5495 21.0985C32.5868 21.112 32.6255 21.1183 32.6638 21.1183V21.1183C32.7812 21.1183 32.8935 21.0572 32.956 20.9511L34.0607 19.067C34.9015 19.1602 35.7473 19.1196 36.5809 18.9451L37.861 20.7164C37.9566 20.8486 38.1324 20.8939 38.2795 20.8241L40.3486 19.8488C40.496 19.7794 40.5727 19.6148 40.5317 19.4574L39.9804 17.3424C40.645 16.8106 41.2152 16.1842 41.6783 15.4762L43.8343 15.8233C43.9942 15.851 44.1512 15.7568 44.2064 15.6035L44.9799 13.4508C45.0347 13.2978 44.9729 13.1269 44.8324 13.0446L42.9484 11.9399C43.0419 11.0988 43.0006 10.2529 42.8264 9.41967L44.5978 8.13919C44.7296 8.04367 44.7749 7.86783 44.7055 7.72042L43.7302 5.65133C43.6607 5.50424 43.4965 5.42756 43.3385 5.46821L41.2234 6.01986C40.6913 5.35487 40.0653 4.78505 39.3573 4.32198L39.704 2.16599C39.7298 2.00503 39.6376 1.84869 39.4842 1.79349L37.3315 1.02006C37.1785 0.964864 37.0076 1.02667 36.925 1.16747L35.8203 3.05117C34.9785 2.95829 34.1326 2.99928 33.3001 3.17347L32.0199 1.4018C31.9244 1.26992 31.7489 1.22497 31.6015 1.29405L29.5324 2.26941C29.385 2.33882 29.3083 2.50342 29.3493 2.66075L29.9009 4.77612C29.2366 5.30767 28.6664 5.93365 28.203 6.6423L26.047 6.29525C25.8867 6.27013 25.7297 6.36169 25.6749 6.51505L24.9014 8.66774C24.8466 8.82077 24.9084 8.99166 25.0489 9.07396L26.9329 10.1786C26.8393 11.0198 26.8807 11.8656 27.0549 12.6985L25.2835 13.979C25.1513 14.0745 25.106 14.2504 25.1754 14.3978L26.1508 16.4669C26.2202 16.6139 26.3835 16.6903 26.5425 16.65L28.6575 16.0987C29.1887 16.763 29.815 17.3328 30.5237 17.7965L30.177 19.9525C30.1512 20.1135 30.2434 20.2698 30.3968 20.325L32.5495 21.0985ZM32.5137 20.3664L30.8899 19.783L31.2277 17.6841C31.2495 17.5486 31.1877 17.4137 31.071 17.342C30.2909 16.8621 29.6137 16.2459 29.0584 15.5108C28.9758 15.4014 28.836 15.3532 28.7028 15.3872L26.6436 15.924L25.9078 14.363L27.6322 13.1166C27.7433 13.0363 27.7948 12.8971 27.7631 12.7636C27.5489 11.8669 27.5046 10.9526 27.6312 10.0463C27.6501 9.91048 27.5856 9.77662 27.4673 9.70754L25.6335 8.63234L26.2172 7.00816L28.3161 7.34596C28.4526 7.36975 28.5865 7.30596 28.6582 7.18896C29.1378 6.40889 29.7539 5.73201 30.4893 5.17639C30.5987 5.09376 30.6476 4.95362 30.6129 4.82108L30.0758 2.76189L31.6366 2.02614L32.8836 3.75084C32.9639 3.8619 33.1031 3.91346 33.2366 3.88173C34.133 3.66821 35.0469 3.62359 35.9542 3.74985C36.0897 3.76969 36.2239 3.70391 36.293 3.58591L37.3682 1.75214L38.992 2.33551L38.6542 4.43439C38.6324 4.56991 38.6946 4.70476 38.8112 4.77648C39.591 5.25549 40.2678 5.87155 40.8238 6.60764C40.9068 6.71704 41.0466 6.76562 41.1794 6.73125L43.2383 6.19414L43.974 7.7552L42.2497 9.00158C42.1386 9.08189 42.0871 9.22105 42.1188 9.35458C42.3326 10.2512 42.3769 11.1658 42.2503 12.0722C42.2315 12.208 42.296 12.3419 42.4143 12.4109L44.2481 13.4865L43.6643 15.1103L41.5655 14.7725C41.4309 14.7504 41.2951 14.8132 41.2234 14.9295C40.7444 15.7089 40.1283 16.3862 39.3922 16.9421C39.2828 17.0247 39.2339 17.1649 39.2686 17.2974L39.8054 19.3563L38.2447 20.092L36.9983 18.3676C36.9176 18.2566 36.7782 18.205 36.6453 18.2368C35.7483 18.4509 34.8333 18.4949 33.9277 18.3683C33.7938 18.3495 33.6583 18.4139 33.5889 18.5322L32.5137 20.3664ZM6.10235 10.8799H1.33846C1.15138 10.8799 1 10.7285 1 10.5415V1.33875C1 1.15167 1.15138 1.00029 1.33846 1.00029H11.543C11.7301 1.00029 11.8815 1.15167 11.8815 1.33875V5.6015H23.8376C24.0247 5.6015 24.1761 5.75289 24.1761 5.93996C24.1761 6.12704 24.0244 6.27842 23.8376 6.27842H11.8815V10.5415C11.8815 10.7285 11.7301 10.8799 11.543 10.8799H6.77927V18.0603H11.543C11.7301 18.0603 11.8815 18.2116 11.8815 18.3987V22.6616H17.56V18.3987C17.56 18.2116 17.7114 18.0603 17.8985 18.0603H28.1022C28.2893 18.0603 28.4407 18.2116 28.4407 18.3987V27.6014C28.4407 27.7885 28.2893 27.9399 28.1022 27.9399H17.8985C17.7114 27.9399 17.56 27.7885 17.56 27.6014V23.3385H11.8815V27.6014C11.8815 27.7885 11.7301 27.9399 11.543 27.9399H6.77927V35.1204H11.543C11.7301 35.1204 11.8815 35.2717 11.8815 35.4588V39.7216H17.56V35.4588C17.56 35.2717 17.7114 35.1204 17.8985 35.1204H28.1022C28.2893 35.1204 28.4407 35.2717 28.4407 35.4588V39.7216H34.1183V35.4588C34.1183 35.2717 34.2697 35.1204 34.4568 35.1204H39.2206V22.3028C39.2206 22.1157 39.372 21.9643 39.559 21.9643C39.7461 21.9643 39.8975 22.1157 39.8975 22.3028V35.1204H44.6613C44.8484 35.1204 44.9998 35.2717 44.9998 35.4588V44.6615C44.9998 44.8486 44.8484 45 44.6613 45H34.4568C34.2697 45 34.1183 44.8486 34.1183 44.6615V40.3985H28.4407V44.6615C28.4407 44.8486 28.2893 45 28.1022 45H17.8985C17.7114 45 17.56 44.8486 17.56 44.6615V40.3985H11.8815V44.6615C11.8815 44.8486 11.7301 45 11.543 45H1.33846C1.15138 45 1 44.8486 1 44.6615V35.4588C1 35.2717 1.15138 35.1204 1.33846 35.1204H6.10235V27.9399H1.33846C1.15138 27.9399 1 27.7885 1 27.6014V18.3987C1 18.2116 1.15138 18.0603 1.33846 18.0603H6.10235V10.8799ZM6.44081 35.7973L6.43756 35.7973H1.67692V44.3231H11.2046V40.0791L11.2042 40.0706L11.204 40.0601L11.2042 40.0489L11.2046 40.041V35.7973H6.44407L6.44081 35.7973ZM11.2046 18.7372V22.981C11.2042 22.9873 11.204 22.9937 11.204 23.0001C11.204 23.0065 11.2042 23.0128 11.2046 23.0191V27.263H1.67692V18.7372H6.43777L6.44081 18.7372L6.44385 18.7372H11.2046ZM1.67692 10.203H11.2046V1.67721H1.67692V10.203ZM27.7637 27.263H18.2369V18.7372H27.7637V27.263ZM27.7637 40.0405V35.7973H18.2369V44.3231H27.7637V40.0796C27.7634 40.0731 27.7632 40.0666 27.7632 40.0601L27.7633 40.0506L27.7637 40.0405ZM44.3229 44.3231H34.7952V35.7973H44.3229V44.3231ZM34.9441 16.0751C34.3726 16.0751 33.7995 15.9763 33.2458 15.7773C30.6443 14.8426 29.2884 11.9657 30.2231 9.36443C31.1575 6.7632 34.0338 5.40801 36.6357 6.3414C37.896 6.79422 38.9044 7.7108 39.4753 8.92181C40.0461 10.1332 40.1112 11.4943 39.6584 12.7543C39.2059 14.0146 38.2893 15.023 37.078 15.5939C36.3991 15.9142 35.6729 16.0751 34.9441 16.0751ZM34.9451 6.72348C33.1662 6.72348 31.4947 7.82609 30.8598 9.59344C30.0513 11.8437 31.2243 14.3319 33.4742 15.1404C34.565 15.5324 35.7416 15.4755 36.7894 14.9821C37.8372 14.4882 38.6298 13.6159 39.0215 12.5259C39.4131 11.4358 39.3569 10.2585 38.8628 9.21072C38.369 8.16327 37.4967 7.37069 36.4067 6.979C35.9244 6.80548 35.4307 6.72351 34.9451 6.72351L34.9451 6.72348Z" fill="#005C97"/>
<path d="M32.6638 21.1183H32.9138V20.8683H32.6638V21.1183ZM32.5495 21.0985L32.6347 20.8634L32.634 20.8632L32.5495 21.0985ZM32.6638 21.1183H32.4138V21.3683H32.6638V21.1183ZM32.956 20.9511L33.1714 21.0779L33.1717 21.0775L32.956 20.9511ZM34.0607 19.067L34.0882 18.8186L33.927 18.8007L33.845 18.9406L34.0607 19.067ZM36.5809 18.9451L36.7835 18.7986L36.6885 18.6671L36.5297 18.7004L36.5809 18.9451ZM37.861 20.7164L38.0637 20.57L38.0637 20.57L37.861 20.7164ZM38.2795 20.8241L38.1729 20.598L38.1724 20.5982L38.2795 20.8241ZM40.3486 19.8488L40.2421 19.6226L40.242 19.6227L40.3486 19.8488ZM40.5317 19.4574L40.7736 19.3944L40.7736 19.3944L40.5317 19.4574ZM39.9804 17.3424L39.8242 17.1472L39.6976 17.2485L39.7385 17.4055L39.9804 17.3424ZM41.6783 15.4762L41.718 15.2294L41.5578 15.2036L41.469 15.3394L41.6783 15.4762ZM43.8343 15.8233L43.877 15.5769L43.874 15.5765L43.8343 15.8233ZM44.2064 15.6035L44.4416 15.6881L44.4417 15.688L44.2064 15.6035ZM44.9799 13.4508L45.2151 13.5353L45.2152 13.5352L44.9799 13.4508ZM44.8324 13.0446L44.706 13.2602L44.7061 13.2603L44.8324 13.0446ZM42.9484 11.9399L42.6999 11.9123L42.682 12.0735L42.8219 12.1556L42.9484 11.9399ZM42.8264 9.41967L42.68 9.21706L42.5485 9.31208L42.5817 9.47083L42.8264 9.41967ZM44.5978 8.13919L44.7442 8.3418L44.7444 8.34166L44.5978 8.13919ZM44.7055 7.72042L44.9317 7.61392L44.9316 7.61382L44.7055 7.72042ZM43.7302 5.65133L43.9563 5.54473L43.9562 5.54463L43.7302 5.65133ZM43.3385 5.46821L43.2762 5.2261L43.2754 5.22631L43.3385 5.46821ZM41.2234 6.01986L41.0283 6.17606L41.1296 6.3027L41.2865 6.26177L41.2234 6.01986ZM39.3573 4.32198L39.1104 4.28228L39.0847 4.44242L39.2204 4.5312L39.3573 4.32198ZM39.704 2.16599L39.9508 2.20568L39.9508 2.20551L39.704 2.16599ZM39.4842 1.79349L39.5689 1.55826L39.5687 1.55821L39.4842 1.79349ZM37.3315 1.02006L37.2467 1.25523L37.247 1.25533L37.3315 1.02006ZM36.925 1.16747L36.7093 1.04094L36.7093 1.04101L36.925 1.16747ZM35.8203 3.05117L35.7929 3.29966L35.954 3.31744L36.036 3.17764L35.8203 3.05117ZM33.3001 3.17347L33.0974 3.31988L33.1924 3.45139L33.3512 3.41817L33.3001 3.17347ZM32.0199 1.4018L32.2225 1.25538L32.2224 1.25515L32.0199 1.4018ZM31.6015 1.29405L31.4954 1.06767L31.4949 1.06792L31.6015 1.29405ZM29.5324 2.26941L29.6389 2.49559L29.639 2.49554L29.5324 2.26941ZM29.3493 2.66075L29.1073 2.72377L29.1074 2.72383L29.3493 2.66075ZM29.9009 4.77612L30.0571 4.97132L30.1837 4.86999L30.1428 4.71304L29.9009 4.77612ZM28.203 6.6423L28.1633 6.88913L28.3235 6.91491L28.4123 6.77913L28.203 6.6423ZM26.047 6.29525L26.0868 6.04842L26.0857 6.04826L26.047 6.29525ZM25.6749 6.51505L25.9101 6.59958L25.9103 6.59926L25.6749 6.51505ZM24.9014 8.66774L24.6662 8.58321L24.6661 8.58337L24.9014 8.66774ZM25.0489 9.07396L25.1753 8.85829L25.1752 8.85825L25.0489 9.07396ZM26.9329 10.1786L27.1814 10.2062L27.1993 10.045L27.0593 9.96294L26.9329 10.1786ZM27.0549 12.6985L27.2013 12.9011L27.3328 12.8061L27.2996 12.6473L27.0549 12.6985ZM25.2835 13.979L25.4299 14.1816L25.43 14.1816L25.2835 13.979ZM25.1754 14.3978L24.9493 14.5043L24.9493 14.5044L25.1754 14.3978ZM26.1508 16.4669L25.9247 16.5735L25.9247 16.5736L26.1508 16.4669ZM26.5425 16.65L26.6039 16.8923L26.6055 16.8919L26.5425 16.65ZM28.6575 16.0987L28.8528 15.9425L28.7514 15.8158L28.5945 15.8567L28.6575 16.0987ZM30.5237 17.7965L30.7705 17.8362L30.7963 17.6761L30.6606 17.5874L30.5237 17.7965ZM30.177 19.9525L29.9301 19.9128L29.9301 19.913L30.177 19.9525ZM30.3968 20.325L30.3121 20.5603L30.3122 20.5603L30.3968 20.325ZM30.8899 19.783L30.643 19.7433L30.6101 19.9481L30.8053 20.0183L30.8899 19.783ZM32.5137 20.3664L32.4292 20.6016L32.6245 20.6718L32.7294 20.4928L32.5137 20.3664ZM31.2277 17.6841L30.9808 17.6444L30.9808 17.6444L31.2277 17.6841ZM31.071 17.342L30.94 17.5549L30.9401 17.555L31.071 17.342ZM29.0584 15.5108L28.8589 15.6615L28.8589 15.6615L29.0584 15.5108ZM28.7028 15.3872L28.6409 15.145L28.6397 15.1453L28.7028 15.3872ZM26.6436 15.924L26.4175 16.0306L26.5059 16.2183L26.7067 16.1659L26.6436 15.924ZM25.9078 14.363L25.7614 14.1603L25.5933 14.2819L25.6817 14.4695L25.9078 14.363ZM27.6322 13.1166L27.7787 13.3192L27.7787 13.3192L27.6322 13.1166ZM27.7631 12.7636L28.0063 12.7058L28.0063 12.7055L27.7631 12.7636ZM27.6312 10.0463L27.8788 10.0809L27.8788 10.0807L27.6312 10.0463ZM27.4673 9.70754L27.3408 9.92321L27.3412 9.92344L27.4673 9.70754ZM25.6335 8.63234L25.3982 8.54779L25.3281 8.74305L25.5071 8.848L25.6335 8.63234ZM26.2172 7.00816L26.2569 6.76134L26.0521 6.72837L25.9819 6.92361L26.2172 7.00816ZM28.3161 7.34596L28.359 7.09965L28.3558 7.09914L28.3161 7.34596ZM28.6582 7.18896L28.4452 7.05802L28.445 7.0583L28.6582 7.18896ZM30.4893 5.17639L30.3387 4.9769L30.3386 4.97692L30.4893 5.17639ZM30.6129 4.82108L30.371 4.88417L30.3711 4.8844L30.6129 4.82108ZM30.0758 2.76189L29.9692 2.53576L29.7816 2.62423L29.8339 2.82499L30.0758 2.76189ZM31.6366 2.02614L31.8391 1.87965L31.7176 1.71155L31.53 1.8L31.6366 2.02614ZM32.8836 3.75084L32.681 3.89732L32.681 3.89734L32.8836 3.75084ZM33.2366 3.88173L33.2944 4.12496L33.2945 4.12493L33.2366 3.88173ZM35.9542 3.74985L35.9904 3.50248L35.9887 3.50224L35.9542 3.74985ZM36.293 3.58591L36.0773 3.45946L36.0772 3.4596L36.293 3.58591ZM37.3682 1.75214L37.4527 1.51686L37.2575 1.44671L37.1525 1.62569L37.3682 1.75214ZM38.992 2.33551L39.2388 2.37524L39.2718 2.17039L39.0766 2.10024L38.992 2.33551ZM38.6542 4.43439L38.9011 4.47412V4.47411L38.6542 4.43439ZM38.8112 4.77648L38.6803 4.98946L38.6804 4.9895L38.8112 4.77648ZM40.8238 6.60764L40.6243 6.75831L40.6246 6.75869L40.8238 6.60764ZM41.1794 6.73125L41.2421 6.97328L41.2425 6.97315L41.1794 6.73125ZM43.2383 6.19414L43.4644 6.08755L43.376 5.89985L43.1752 5.95223L43.2383 6.19414ZM43.974 7.7552L44.1205 7.95781L44.2886 7.83628L44.2002 7.64861L43.974 7.7552ZM42.2497 9.00158L42.1032 8.79896L42.1032 8.799L42.2497 9.00158ZM42.1188 9.35458L41.8756 9.41238L41.8756 9.41258L42.1188 9.35458ZM42.2503 12.0722L42.0027 12.0376L42.0027 12.0378L42.2503 12.0722ZM42.4143 12.4109L42.5408 12.1953L42.5403 12.195L42.4143 12.4109ZM44.2481 13.4865L44.4833 13.5711L44.5535 13.3758L44.3745 13.2708L44.2481 13.4865ZM43.6643 15.1103L43.6246 15.3572L43.8294 15.3901L43.8996 15.1949L43.6643 15.1103ZM41.5655 14.7725L41.5249 15.0192L41.5257 15.0194L41.5655 14.7725ZM41.2234 14.9295L41.0106 14.7983L41.0104 14.7986L41.2234 14.9295ZM39.3922 16.9421L39.5429 17.1416V17.1416L39.3922 16.9421ZM39.2686 17.2974L39.5105 17.2343L39.5105 17.2341L39.2686 17.2974ZM39.8054 19.3563L39.912 19.5824L40.0996 19.4939L40.0473 19.2932L39.8054 19.3563ZM38.2447 20.092L38.042 20.2385L38.1636 20.4066L38.3513 20.3181L38.2447 20.092ZM36.9983 18.3676L37.2009 18.2212L37.2006 18.2208L36.9983 18.3676ZM36.6453 18.2368L36.7033 18.4799L36.7034 18.4799L36.6453 18.2368ZM33.9277 18.3683L33.8929 18.6159L33.8931 18.6159L33.9277 18.3683ZM33.5889 18.5322L33.3733 18.4058L33.3732 18.4058L33.5889 18.5322ZM6.10235 10.8799H6.35235V10.6299H6.10235V10.8799ZM11.8815 5.6015H11.6315V5.8515H11.8815V5.6015ZM11.8815 6.27842V6.02842H11.6315V6.27842H11.8815ZM6.77927 10.8799V10.6299H6.52927V10.8799H6.77927ZM6.77927 18.0603H6.52927V18.3103H6.77927V18.0603ZM11.8815 22.6616H11.6315V22.9116H11.8815V22.6616ZM17.56 22.6616V22.9116H17.81V22.6616H17.56ZM17.56 23.3385H17.81V23.0885H17.56V23.3385ZM11.8815 23.3385V23.0885H11.6315V23.3385H11.8815ZM6.77927 27.9399V27.6899H6.52927V27.9399H6.77927ZM6.77927 35.1204H6.52927V35.3704H6.77927V35.1204ZM11.8815 39.7216H11.6315V39.9716H11.8815V39.7216ZM17.56 39.7216V39.9716H17.81V39.7216H17.56ZM28.4407 39.7216H28.1907V39.9716H28.4407V39.7216ZM34.1183 39.7216V39.9716H34.3683V39.7216H34.1183ZM39.2206 35.1204V35.3704H39.4706V35.1204H39.2206ZM39.8975 35.1204H39.6475V35.3704H39.8975V35.1204ZM34.1183 40.3985H34.3683V40.1485H34.1183V40.3985ZM28.4407 40.3985V40.1485H28.1907V40.3985H28.4407ZM17.56 40.3985H17.81V40.1485H17.56V40.3985ZM11.8815 40.3985V40.1485H11.6315V40.3985H11.8815ZM6.10235 35.1204V35.3704H6.35235V35.1204H6.10235ZM6.10235 27.9399H6.35235V27.6899H6.10235V27.9399ZM6.10235 18.0603V18.3103H6.35235V18.0603H6.10235ZM6.43756 35.7973L6.43873 35.5473H6.43756V35.7973ZM6.44081 35.7973L6.43964 36.0473L6.44199 36.0473L6.44081 35.7973ZM1.67692 35.7973V35.5473H1.42692V35.7973H1.67692ZM1.67692 44.3231H1.42692V44.5731H1.67692V44.3231ZM11.2046 44.3231V44.5731H11.4546V44.3231H11.2046ZM11.2046 40.0791H11.4548L11.4543 40.0684L11.2046 40.0791ZM11.2042 40.0706L10.9541 40.0744L10.9544 40.0813L11.2042 40.0706ZM11.204 40.0601L10.9539 40.056L10.9541 40.0639L11.204 40.0601ZM11.2042 40.0489L10.9544 40.038L10.9542 40.0449L11.2042 40.0489ZM11.2046 40.041L11.4546 40.0519V40.041H11.2046ZM11.2046 35.7973H11.4546V35.5473H11.2046V35.7973ZM6.44407 35.7973V35.5473L6.44289 35.5473L6.44407 35.7973ZM11.2046 22.981L11.4546 22.9948V22.981H11.2046ZM11.2046 18.7372H11.4546V18.4872H11.2046V18.7372ZM11.2046 23.0191H11.4549L11.4542 23.0053L11.2046 23.0191ZM11.2046 27.263V27.513H11.4546V27.263H11.2046ZM1.67692 27.263H1.42692V27.513H1.67692V27.263ZM1.67692 18.7372V18.4872H1.42692V18.7372H1.67692ZM6.43777 18.7372L6.43887 18.4872H6.43777V18.7372ZM6.44081 18.7372L6.43972 18.9872L6.44191 18.9872L6.44081 18.7372ZM6.44385 18.7372V18.4872L6.44276 18.4872L6.44385 18.7372ZM11.2046 10.203V10.453H11.4546V10.203H11.2046ZM1.67692 10.203H1.42692V10.453H1.67692V10.203ZM11.2046 1.67721H11.4546V1.42721H11.2046V1.67721ZM1.67692 1.67721V1.42721H1.42692V1.67721H1.67692ZM18.2369 27.263H17.9869V27.513H18.2369V27.263ZM27.7637 27.263V27.513H28.0137V27.263H27.7637ZM18.2369 18.7372V18.4872H17.9869V18.7372H18.2369ZM27.7637 18.7372H28.0137V18.4872H27.7637V18.7372ZM27.7637 35.7973H28.0137V35.5473H27.7637V35.7973ZM27.7637 40.0405L28.0137 40.051V40.0405H27.7637ZM18.2369 35.7973V35.5473H17.9869V35.7973H18.2369ZM18.2369 44.3231H17.9869V44.5731H18.2369V44.3231ZM27.7637 44.3231V44.5731H28.0137V44.3231H27.7637ZM27.7637 40.0796H28.0137V40.0725L28.0133 40.0654L27.7637 40.0796ZM27.7632 40.0601L27.5132 40.0567V40.0601H27.7632ZM27.7633 40.0506L27.5134 40.0401L27.5133 40.0472L27.7633 40.0506ZM34.7952 44.3231H34.5452V44.5731H34.7952V44.3231ZM44.3229 44.3231V44.5731H44.5729V44.3231H44.3229ZM34.7952 35.7973V35.5473H34.5452V35.7973H34.7952ZM44.3229 35.7973H44.5729V35.5473H44.3229V35.7973ZM33.2458 15.7773L33.3304 15.542L33.3304 15.542L33.2458 15.7773ZM30.2231 9.36443L30.4584 9.44898L30.4584 9.44895L30.2231 9.36443ZM36.6357 6.3414L36.7202 6.10612L36.7201 6.10608L36.6357 6.3414ZM39.4753 8.92181L39.7014 8.81525L39.7014 8.81521L39.4753 8.92181ZM39.6584 12.7543L39.4231 12.6697L39.4231 12.6698L39.6584 12.7543ZM37.078 15.5939L36.9714 15.3677L36.9713 15.3678L37.078 15.5939ZM30.8598 9.59344L31.095 9.67797L31.095 9.67797L30.8598 9.59344ZM34.9451 6.72348L35.0386 6.49163L34.9936 6.47348H34.9451V6.72348ZM33.4742 15.1404L33.5587 14.9051L33.5587 14.9051L33.4742 15.1404ZM36.7894 14.9821L36.8959 15.2082L36.896 15.2082L36.7894 14.9821ZM39.0215 12.5259L39.2567 12.6105L39.2567 12.6105L39.0215 12.5259ZM38.8628 9.21072L38.6367 9.31733L38.6367 9.31736L38.8628 9.21072ZM36.4067 6.979L36.322 7.21424L36.3221 7.21428L36.4067 6.979ZM34.9451 6.72351L34.8516 6.95536L34.8966 6.97351H34.9451V6.72351ZM32.6638 20.8683C32.6528 20.8683 32.6432 20.8665 32.6347 20.8635L32.4642 21.3335C32.5305 21.3575 32.5981 21.3683 32.6638 21.3683V20.8683ZM32.9138 21.1183V21.1183H32.4138V21.1183H32.9138ZM32.7406 20.8242C32.7241 20.8522 32.6947 20.8683 32.6638 20.8683V21.3683C32.8676 21.3683 33.063 21.2621 33.1714 21.0779L32.7406 20.8242ZM33.845 18.9406L32.7403 20.8246L33.1717 21.0775L34.2763 19.1935L33.845 18.9406ZM36.5297 18.7004C35.7219 18.8695 34.9026 18.9088 34.0882 18.8186L34.0331 19.3155C34.9003 19.4116 35.7728 19.3697 36.6321 19.1898L36.5297 18.7004ZM38.0637 20.57L36.7835 18.7986L36.3783 19.0915L37.6584 20.8628L38.0637 20.57ZM38.1724 20.5982C38.1345 20.6162 38.0888 20.6048 38.0637 20.57L37.6584 20.8628C37.8243 21.0924 38.1303 21.1716 38.3866 21.05L38.1724 20.5982ZM40.242 19.6227L38.1729 20.598L38.3861 21.0503L40.4552 20.0749L40.242 19.6227ZM40.2898 19.5205C40.3005 19.5617 40.2803 19.6046 40.2421 19.6226L40.4551 20.075C40.7117 19.9542 40.8449 19.6678 40.7736 19.3944L40.2898 19.5205ZM39.7385 17.4055L40.2898 19.5205L40.7736 19.3944L40.2223 17.2793L39.7385 17.4055ZM41.469 15.3394C41.0206 16.025 40.4684 16.6318 39.8242 17.1472L40.1366 17.5376C40.8217 16.9894 41.4098 16.3434 41.8875 15.6131L41.469 15.3394ZM43.874 15.5765L41.718 15.2294L41.6385 15.723L43.7945 16.0701L43.874 15.5765ZM43.9712 15.5188C43.9558 15.5616 43.9136 15.5833 43.877 15.577L43.7915 16.0696C44.0749 16.1188 44.3466 15.9521 44.4416 15.6881L43.9712 15.5188ZM44.7446 13.3663L43.9711 15.5189L44.4417 15.688L45.2151 13.5353L44.7446 13.3663ZM44.7061 13.2603C44.7426 13.2817 44.7589 13.3264 44.7445 13.3664L45.2152 13.5352C45.3106 13.2691 45.2032 12.9721 44.9588 12.8289L44.7061 13.2603ZM42.8219 12.1556L44.706 13.2602L44.9589 12.8289L43.0748 11.7243L42.8219 12.1556ZM42.5817 9.47083C42.7506 10.2785 42.7905 11.0977 42.6999 11.9123L43.1969 11.9676C43.2934 11.0998 43.2507 10.2274 43.0711 9.36851L42.5817 9.47083ZM44.4513 7.93659L42.68 9.21706L42.9729 9.62227L44.7442 8.3418L44.4513 7.93659ZM44.4793 7.82691C44.4976 7.86563 44.4857 7.9117 44.4511 7.93672L44.7444 8.34166C44.9736 8.17564 45.0523 7.87004 44.9317 7.61392L44.4793 7.82691ZM43.504 5.75793L44.4794 7.82701L44.9316 7.61382L43.9563 5.54473L43.504 5.75793ZM43.4008 5.71032C43.4434 5.69936 43.4862 5.72014 43.5041 5.75802L43.9562 5.54463C43.8353 5.28834 43.5496 5.15575 43.2762 5.2261L43.4008 5.71032ZM41.2865 6.26177L43.4016 5.71012L43.2754 5.22631L41.1604 5.77795L41.2865 6.26177ZM39.2204 4.5312C39.9061 4.97967 40.5125 5.53154 41.0283 6.17606L41.4186 5.86366C40.8701 5.1782 40.2244 4.59043 39.4941 4.11276L39.2204 4.5312ZM39.4572 2.12629L39.1104 4.28228L39.6041 4.36167L39.9508 2.20568L39.4572 2.12629ZM39.3995 2.02872C39.4397 2.04318 39.4639 2.08406 39.4571 2.12646L39.9508 2.20551C39.9956 1.926 39.8354 1.65419 39.5689 1.55826L39.3995 2.02872ZM37.247 1.25533L39.3997 2.02876L39.5687 1.55821L37.416 0.784783L37.247 1.25533ZM37.1406 1.294C37.1624 1.25679 37.2071 1.24097 37.2467 1.25523L37.4163 0.784887C37.1498 0.688758 36.8528 0.796548 36.7093 1.04094L37.1406 1.294ZM36.036 3.17764L37.1406 1.29394L36.7093 1.04101L35.6047 2.92471L36.036 3.17764ZM33.3512 3.41817C34.1581 3.24936 34.9774 3.20969 35.7929 3.29966L35.8477 2.80268C34.9796 2.70689 34.1072 2.74919 33.2489 2.92876L33.3512 3.41817ZM31.8173 1.54822L33.0974 3.31988L33.5027 3.02705L32.2225 1.25538L31.8173 1.54822ZM31.7075 1.52043C31.7468 1.50204 31.7926 1.51418 31.8174 1.54845L32.2224 1.25515C32.0562 1.02566 31.751 0.947899 31.4954 1.06767L31.7075 1.52043ZM29.639 2.49554L31.7081 1.52018L31.4949 1.06792L29.4258 2.04327L29.639 2.49554ZM29.5912 2.59773C29.5804 2.55649 29.6006 2.5136 29.6389 2.49559L29.4259 2.04322C29.1693 2.16403 29.0361 2.45034 29.1073 2.72377L29.5912 2.59773ZM30.1428 4.71304L29.5912 2.59766L29.1074 2.72383L29.659 4.83921L30.1428 4.71304ZM28.4123 6.77913C28.861 6.09285 29.4132 5.48652 30.0571 4.97132L29.7447 4.58092C29.06 5.12883 28.4718 5.77446 27.9938 6.50548L28.4123 6.77913ZM26.0073 6.54207L28.1633 6.88913L28.2428 6.39548L26.0868 6.04842L26.0073 6.54207ZM25.9103 6.59926C25.9241 6.56058 25.9649 6.53543 26.0083 6.54223L26.0857 6.04826C25.8086 6.00484 25.5354 6.16279 25.4395 6.43084L25.9103 6.59926ZM25.1367 8.75227L25.9101 6.59958L25.4396 6.43052L24.6662 8.58321L25.1367 8.75227ZM25.1752 8.85825C25.1387 8.83686 25.1224 8.79214 25.1368 8.75211L24.6661 8.58337C24.5707 8.84941 24.678 9.14646 24.9225 9.28966L25.1752 8.85825ZM27.0593 9.96294L25.1753 8.85829L24.9224 9.28962L26.8064 10.3943L27.0593 9.96294ZM27.2996 12.6473C27.1307 11.8401 27.0908 11.0208 27.1814 10.2062L26.6844 10.151C26.5879 11.0187 26.6306 11.8911 26.8102 12.7497L27.2996 12.6473ZM25.43 14.1816L27.2013 12.9011L26.9084 12.4959L25.1371 13.7764L25.43 14.1816ZM25.4016 14.2913C25.3834 14.2526 25.3953 14.2067 25.4299 14.1816L25.1371 13.7764C24.9074 13.9423 24.8286 14.2481 24.9493 14.5043L25.4016 14.2913ZM26.3769 16.3603L25.4016 14.2912L24.9493 14.5044L25.9247 16.5735L26.3769 16.3603ZM26.481 16.4076C26.4366 16.4189 26.3946 16.3977 26.3769 16.3602L25.9247 16.5736C26.0458 16.8302 26.3304 16.9617 26.6039 16.8923L26.481 16.4076ZM28.5945 15.8567L26.4794 16.4081L26.6055 16.8919L28.7206 16.3406L28.5945 15.8567ZM30.6606 17.5874C29.9742 17.1382 29.3675 16.5863 28.8528 15.9425L28.4623 16.2548C29.0099 16.9397 29.6559 17.5274 30.3868 18.0057L30.6606 17.5874ZM30.4238 19.9922L30.7705 17.8362L30.2769 17.7568L29.9301 19.9128L30.4238 19.9922ZM30.4814 20.0898C30.4412 20.0753 30.417 20.0345 30.4238 19.9921L29.9301 19.913C29.8854 20.1925 30.0456 20.4643 30.3121 20.5603L30.4814 20.0898ZM32.634 20.8632L30.4813 20.0898L30.3122 20.5603L32.4649 21.3337L32.634 20.8632ZM30.8053 20.0183L32.4292 20.6016L32.5982 20.1311L30.9744 19.5477L30.8053 20.0183ZM30.9808 17.6444L30.643 19.7433L31.1367 19.8227L31.4745 17.7238L30.9808 17.6444ZM30.9401 17.555C30.9704 17.5736 30.9866 17.6086 30.9808 17.6444L31.4745 17.7238C31.5124 17.4886 31.405 17.2538 31.2019 17.129L30.9401 17.555ZM28.8589 15.6615C29.4329 16.4213 30.1333 17.0586 30.94 17.5549L31.202 17.1291C30.4486 16.6655 29.7945 16.0706 29.2579 15.3602L28.8589 15.6615ZM28.7647 15.6294C28.8014 15.6201 28.8377 15.6335 28.8589 15.6615L29.2579 15.3602C29.1139 15.1694 28.8705 15.0863 28.6409 15.145L28.7647 15.6294ZM26.7067 16.1659L28.7658 15.6291L28.6397 15.1453L26.5805 15.6821L26.7067 16.1659ZM25.6817 14.4695L26.4175 16.0306L26.8697 15.8174L26.134 14.2564L25.6817 14.4695ZM27.4858 12.914L25.7614 14.1603L26.0543 14.5656L27.7787 13.3192L27.4858 12.914ZM27.5199 12.8214C27.5283 12.8568 27.5146 12.8931 27.4857 12.914L27.7787 13.3192C27.9719 13.1794 28.0614 12.9374 28.0063 12.7058L27.5199 12.8214ZM27.3836 10.0117C27.2527 10.9492 27.2986 11.8949 27.5199 12.8217L28.0063 12.7055C27.7993 11.839 27.7566 10.9561 27.8788 10.0809L27.3836 10.0117ZM27.3412 9.92344C27.3713 9.94102 27.3886 9.97564 27.3836 10.012L27.8788 10.0807C27.9115 9.84533 27.7999 9.61223 27.5933 9.49164L27.3412 9.92344ZM25.5071 8.848L27.3408 9.92321L27.5937 9.49188L25.76 8.41668L25.5071 8.848ZM25.9819 6.92361L25.3982 8.54779L25.8688 8.71689L26.4525 7.09271L25.9819 6.92361ZM28.3558 7.09914L26.2569 6.76134L26.1775 7.25498L28.2764 7.59278L28.3558 7.09914ZM28.445 7.0583C28.4247 7.09143 28.3905 7.10516 28.359 7.09967L28.2732 7.59225C28.5147 7.63434 28.7482 7.52049 28.8713 7.31961L28.445 7.0583ZM30.3386 4.97692C29.5786 5.55114 28.9413 6.25121 28.4452 7.05802L28.8711 7.31989C29.3343 6.56658 29.9292 5.91287 30.64 5.37586L30.3386 4.97692ZM30.3711 4.8844C30.38 4.9185 30.3676 4.95503 30.3387 4.9769L30.64 5.37589C30.8299 5.2325 30.9153 4.98873 30.8548 4.75775L30.3711 4.8844ZM29.8339 2.82499L30.371 4.88417L30.8549 4.75798L30.3177 2.69879L29.8339 2.82499ZM31.53 1.8L29.9692 2.53576L30.1824 2.98802L31.7432 2.25227L31.53 1.8ZM33.0862 3.60436L31.8391 1.87965L31.434 2.17262L32.681 3.89732L33.0862 3.60436ZM33.1788 3.63851C33.1434 3.64692 33.1071 3.63325 33.0862 3.60434L32.681 3.89734C32.8208 4.09055 33.0628 4.18 33.2944 4.12496L33.1788 3.63851ZM35.9887 3.50224C35.0503 3.37165 34.1051 3.41787 33.1787 3.63854L33.2945 4.12493C34.161 3.91855 35.0435 3.87553 35.9197 3.99747L35.9887 3.50224ZM36.0772 3.4596C36.0588 3.49115 36.0234 3.50732 35.9904 3.50249L35.918 3.99722C36.156 4.03205 36.389 3.91666 36.5087 3.71222L36.0772 3.4596ZM37.1525 1.62569L36.0773 3.45946L36.5086 3.71236L37.5838 1.87859L37.1525 1.62569ZM39.0766 2.10024L37.4527 1.51686L37.2837 1.98741L38.9075 2.57079L39.0766 2.10024ZM38.9011 4.47411L39.2388 2.37524L38.7452 2.29579L38.4074 4.39466L38.9011 4.47411ZM38.9422 4.56351C38.9115 4.54464 38.8954 4.50943 38.9011 4.47412L38.4074 4.39465C38.3695 4.63038 38.4776 4.86487 38.6803 4.98946L38.9422 4.56351ZM41.0233 6.45696C40.4487 5.69624 39.7486 5.05895 38.9421 4.56347L38.6804 4.9895C39.4333 5.45203 40.087 6.04687 40.6243 6.75831L41.0233 6.45696ZM41.1168 6.48922C41.0816 6.49833 41.045 6.48565 41.023 6.45658L40.6246 6.75869C40.7685 6.94842 41.0115 7.03292 41.2421 6.97328L41.1168 6.48922ZM43.1752 5.95223L41.1163 6.48935L41.2425 6.97315L43.3014 6.43604L43.1752 5.95223ZM44.2002 7.64861L43.4644 6.08755L43.0121 6.30072L43.7479 7.86178L44.2002 7.64861ZM42.3961 9.20419L44.1205 7.95781L43.8276 7.55258L42.1032 8.79896L42.3961 9.20419ZM42.362 9.29678C42.3536 9.26135 42.3673 9.22506 42.3962 9.20415L42.1032 8.799C41.91 8.93873 41.8205 9.18075 41.8756 9.41238L42.362 9.29678ZM42.4979 12.1067C42.6289 11.1693 42.583 10.2233 42.362 9.29658L41.8756 9.41258C42.0823 10.2792 42.125 11.1624 42.0027 12.0376L42.4979 12.1067ZM42.5403 12.195C42.5102 12.1775 42.4929 12.1429 42.498 12.1065L42.0027 12.0378C41.9701 12.2732 42.0817 12.5063 42.2882 12.6268L42.5403 12.195ZM44.3745 13.2708L42.5408 12.1953L42.2878 12.6266L44.1216 13.7021L44.3745 13.2708ZM43.8996 15.1949L44.4833 13.5711L44.0128 13.4019L43.4291 15.0258L43.8996 15.1949ZM41.5257 15.0194L43.6246 15.3572L43.7041 14.8635L41.6052 14.5257L41.5257 15.0194ZM41.4362 15.0607C41.4554 15.0295 41.4918 15.0138 41.5249 15.0192L41.6061 14.5259C41.3701 14.487 41.1348 14.5968 41.0106 14.7983L41.4362 15.0607ZM39.5429 17.1416C40.3036 16.567 40.9409 15.8666 41.4364 15.0604L41.0104 14.7986C40.5478 15.5513 39.953 16.2053 39.2416 16.7426L39.5429 17.1416ZM39.5105 17.2341C39.5015 17.2 39.5139 17.1635 39.5429 17.1416L39.2416 16.7426C39.0517 16.886 38.9663 17.1298 39.0268 17.3607L39.5105 17.2341ZM40.0473 19.2932L39.5105 17.2343L39.0267 17.3605L39.5635 19.4193L40.0473 19.2932ZM38.3513 20.3181L39.912 19.5824L39.6988 19.1301L38.1381 19.8659L38.3513 20.3181ZM36.7957 18.5141L38.042 20.2385L38.4473 19.9456L37.2009 18.2212L36.7957 18.5141ZM36.7034 18.4799C36.7377 18.4717 36.7746 18.485 36.796 18.5145L37.2006 18.2208C37.0607 18.0282 36.8186 17.9383 36.5872 17.9936L36.7034 18.4799ZM33.8931 18.6159C34.8298 18.7468 35.7762 18.7013 36.7033 18.4799L36.5872 17.9936C35.7204 18.2006 34.8369 18.243 33.9623 18.1207L33.8931 18.6159ZM33.8046 18.6587C33.8224 18.6283 33.8587 18.6111 33.8929 18.6159L33.9626 18.1207C33.729 18.0879 33.4942 18.1996 33.3733 18.4058L33.8046 18.6587ZM32.7294 20.4928L33.8046 18.6587L33.3732 18.4058L32.298 20.2399L32.7294 20.4928ZM1.33846 11.1299H6.10235V10.6299H1.33846V11.1299ZM0.75 10.5415C0.75 10.8666 1.01331 11.1299 1.33846 11.1299V10.6299C1.28946 10.6299 1.25 10.5905 1.25 10.5415H0.75ZM0.75 1.33875V10.5415H1.25V1.33875H0.75ZM1.33846 0.75029C1.01331 0.75029 0.75 1.0136 0.75 1.33875H1.25C1.25 1.28975 1.28946 1.25029 1.33846 1.25029V0.75029ZM11.543 0.75029H1.33846V1.25029H11.543V0.75029ZM12.1315 1.33875C12.1315 1.0136 11.8682 0.75029 11.543 0.75029V1.25029C11.592 1.25029 11.6315 1.28975 11.6315 1.33875H12.1315ZM12.1315 5.6015V1.33875H11.6315V5.6015H12.1315ZM23.8376 5.3515H11.8815V5.8515H23.8376V5.3515ZM24.4261 5.93996C24.4261 5.61482 24.1628 5.3515 23.8376 5.3515V5.8515C23.8866 5.8515 23.9261 5.89096 23.9261 5.93996H24.4261ZM23.8376 6.52842C24.1623 6.52842 24.4261 6.26527 24.4261 5.93996H23.9261C23.9261 5.98881 23.8864 6.02842 23.8376 6.02842V6.52842ZM11.8815 6.52842H23.8376V6.02842H11.8815V6.52842ZM12.1315 10.5415V6.27842H11.6315V10.5415H12.1315ZM11.543 11.1299C11.8682 11.1299 12.1315 10.8666 12.1315 10.5415H11.6315C11.6315 10.5905 11.592 10.6299 11.543 10.6299V11.1299ZM6.77927 11.1299H11.543V10.6299H6.77927V11.1299ZM7.02927 18.0603V10.8799H6.52927V18.0603H7.02927ZM11.543 17.8103H6.77927V18.3103H11.543V17.8103ZM12.1315 18.3987C12.1315 18.0736 11.8682 17.8103 11.543 17.8103V18.3103C11.592 18.3103 11.6315 18.3497 11.6315 18.3987H12.1315ZM12.1315 22.6616V18.3987H11.6315V22.6616H12.1315ZM17.56 22.4116H11.8815V22.9116H17.56V22.4116ZM17.31 18.3987V22.6616H17.81V18.3987H17.31ZM17.8985 17.8103C17.5733 17.8103 17.31 18.0736 17.31 18.3987H17.81C17.81 18.3497 17.8495 18.3103 17.8985 18.3103V17.8103ZM28.1022 17.8103H17.8985V18.3103H28.1022V17.8103ZM28.6907 18.3987C28.6907 18.0736 28.4273 17.8103 28.1022 17.8103V18.3103C28.1512 18.3103 28.1907 18.3497 28.1907 18.3987H28.6907ZM28.6907 27.6014V18.3987H28.1907V27.6014H28.6907ZM28.1022 28.1899C28.4273 28.1899 28.6907 27.9266 28.6907 27.6014H28.1907C28.1907 27.6504 28.1512 27.6899 28.1022 27.6899V28.1899ZM17.8985 28.1899H28.1022V27.6899H17.8985V28.1899ZM17.31 27.6014C17.31 27.9266 17.5733 28.1899 17.8985 28.1899V27.6899C17.8495 27.6899 17.81 27.6504 17.81 27.6014H17.31ZM17.31 23.3385V27.6014H17.81V23.3385H17.31ZM11.8815 23.5885H17.56V23.0885H11.8815V23.5885ZM12.1315 27.6014V23.3385H11.6315V27.6014H12.1315ZM11.543 28.1899C11.8682 28.1899 12.1315 27.9266 12.1315 27.6014H11.6315C11.6315 27.6504 11.592 27.6899 11.543 27.6899V28.1899ZM6.77927 28.1899H11.543V27.6899H6.77927V28.1899ZM7.02927 35.1204V27.9399H6.52927V35.1204H7.02927ZM11.543 34.8704H6.77927V35.3704H11.543V34.8704ZM12.1315 35.4588C12.1315 35.1337 11.8682 34.8704 11.543 34.8704V35.3704C11.592 35.3704 11.6315 35.4098 11.6315 35.4588H12.1315ZM12.1315 39.7216V35.4588H11.6315V39.7216H12.1315ZM17.56 39.4716H11.8815V39.9716H17.56V39.4716ZM17.31 35.4588V39.7216H17.81V35.4588H17.31ZM17.8985 34.8704C17.5733 34.8704 17.31 35.1337 17.31 35.4588H17.81C17.81 35.4098 17.8495 35.3704 17.8985 35.3704V34.8704ZM28.1022 34.8704H17.8985V35.3704H28.1022V34.8704ZM28.6907 35.4588C28.6907 35.1337 28.4273 34.8704 28.1022 34.8704V35.3704C28.1512 35.3704 28.1907 35.4098 28.1907 35.4588H28.6907ZM28.6907 39.7216V35.4588H28.1907V39.7216H28.6907ZM34.1183 39.4716H28.4407V39.9716H34.1183V39.4716ZM33.8683 35.4588V39.7216H34.3683V35.4588H33.8683ZM34.4568 34.8704C34.1316 34.8704 33.8683 35.1337 33.8683 35.4588H34.3683C34.3683 35.4098 34.4078 35.3704 34.4568 35.3704V34.8704ZM39.2206 34.8704H34.4568V35.3704H39.2206V34.8704ZM39.4706 35.1204V22.3028H38.9706V35.1204H39.4706ZM39.4706 22.3028C39.4706 22.2538 39.51 22.2143 39.559 22.2143V21.7143C39.2339 21.7143 38.9706 21.9776 38.9706 22.3028H39.4706ZM39.559 22.2143C39.608 22.2143 39.6475 22.2538 39.6475 22.3028H40.1475C40.1475 21.9776 39.8842 21.7143 39.559 21.7143V22.2143ZM39.6475 22.3028V35.1204H40.1475V22.3028H39.6475ZM44.6613 34.8704H39.8975V35.3704H44.6613V34.8704ZM45.2498 35.4588C45.2498 35.1337 44.9865 34.8704 44.6613 34.8704V35.3704C44.7103 35.3704 44.7498 35.4098 44.7498 35.4588H45.2498ZM45.2498 44.6615V35.4588H44.7498V44.6615H45.2498ZM44.6613 45.25C44.9865 45.25 45.2498 44.9867 45.2498 44.6615H44.7498C44.7498 44.7105 44.7103 44.75 44.6613 44.75V45.25ZM34.4568 45.25H44.6613V44.75H34.4568V45.25ZM33.8683 44.6615C33.8683 44.9867 34.1316 45.25 34.4568 45.25V44.75C34.4078 44.75 34.3683 44.7105 34.3683 44.6615H33.8683ZM33.8683 40.3985V44.6615H34.3683V40.3985H33.8683ZM28.4407 40.6485H34.1183V40.1485H28.4407V40.6485ZM28.6907 44.6615V40.3985H28.1907V44.6615H28.6907ZM28.1022 45.25C28.4273 45.25 28.6907 44.9867 28.6907 44.6615H28.1907C28.1907 44.7105 28.1512 44.75 28.1022 44.75V45.25ZM17.8985 45.25H28.1022V44.75H17.8985V45.25ZM17.31 44.6615C17.31 44.9867 17.5733 45.25 17.8985 45.25V44.75C17.8495 44.75 17.81 44.7105 17.81 44.6615H17.31ZM17.31 40.3985V44.6615H17.81V40.3985H17.31ZM11.8815 40.6485H17.56V40.1485H11.8815V40.6485ZM12.1315 44.6615V40.3985H11.6315V44.6615H12.1315ZM11.543 45.25C11.8682 45.25 12.1315 44.9867 12.1315 44.6615H11.6315C11.6315 44.7105 11.592 44.75 11.543 44.75V45.25ZM1.33846 45.25H11.543V44.75H1.33846V45.25ZM0.75 44.6615C0.75 44.9867 1.01331 45.25 1.33846 45.25V44.75C1.28945 44.75 1.25 44.7105 1.25 44.6615H0.75ZM0.75 35.4588V44.6615H1.25V35.4588H0.75ZM1.33846 34.8704C1.01331 34.8704 0.75 35.1337 0.75 35.4588H1.25C1.25 35.4098 1.28946 35.3704 1.33846 35.3704V34.8704ZM6.10235 34.8704H1.33846V35.3704H6.10235V34.8704ZM5.85235 27.9399V35.1204H6.35235V27.9399H5.85235ZM1.33846 28.1899H6.10235V27.6899H1.33846V28.1899ZM0.75 27.6014C0.75 27.9266 1.01331 28.1899 1.33846 28.1899V27.6899C1.28946 27.6899 1.25 27.6504 1.25 27.6014H0.75ZM0.75 18.3987V27.6014H1.25V18.3987H0.75ZM1.33846 17.8103C1.01331 17.8103 0.75 18.0736 0.75 18.3987H1.25C1.25 18.3497 1.28946 18.3103 1.33846 18.3103V17.8103ZM6.10235 17.8103H1.33846V18.3103H6.10235V17.8103ZM5.85235 10.8799V18.0603H6.35235V10.8799H5.85235ZM6.43639 36.0473L6.43964 36.0473L6.44199 35.5473L6.43873 35.5473L6.43639 36.0473ZM1.67692 36.0473H6.43756V35.5473H1.67692V36.0473ZM1.92692 44.3231V35.7973H1.42692V44.3231H1.92692ZM11.2046 44.0731H1.67692V44.5731H11.2046V44.0731ZM10.9546 40.0791V44.3231H11.4546V40.0791H10.9546ZM10.9544 40.0813L10.9548 40.0898L11.4543 40.0684L11.454 40.0599L10.9544 40.0813ZM10.9541 40.0639L10.9542 40.0744L11.4542 40.0668L11.454 40.0562L10.9541 40.0639ZM10.9542 40.0449L10.9541 40.056L11.454 40.0641L11.4542 40.053L10.9542 40.0449ZM10.9548 40.0301L10.9544 40.038L11.454 40.0598L11.4543 40.0519L10.9548 40.0301ZM10.9546 35.7973V40.041H11.4546V35.7973H10.9546ZM6.44407 36.0473H11.2046V35.5473H6.44407V36.0473ZM6.44199 36.0473L6.44524 36.0473L6.44289 35.5473L6.43964 35.5473L6.44199 36.0473ZM11.4546 22.981V18.7372H10.9546V22.981H11.4546ZM11.454 23.0001C11.454 22.9983 11.4541 22.9965 11.4542 22.9948L10.9549 22.9672C10.9543 22.9781 10.954 22.9891 10.954 23.0001H11.454ZM11.4542 23.0053C11.4541 23.0036 11.454 23.0018 11.454 23.0001H10.954C10.954 23.0111 10.9543 23.0221 10.9549 23.0329L11.4542 23.0053ZM11.4546 27.263V23.0191H10.9546V27.263H11.4546ZM1.67692 27.513H11.2046V27.013H1.67692V27.513ZM1.42692 18.7372V27.263H1.92692V18.7372H1.42692ZM6.43777 18.4872H1.67692V18.9872H6.43777V18.4872ZM6.44191 18.4872L6.43887 18.4872L6.43667 18.9872L6.43972 18.9872L6.44191 18.4872ZM6.44276 18.4872L6.43972 18.4872L6.44191 18.9872L6.44495 18.9872L6.44276 18.4872ZM11.2046 18.4872H6.44385V18.9872H11.2046V18.4872ZM11.2046 9.953H1.67692V10.453H11.2046V9.953ZM10.9546 1.67721V10.203H11.4546V1.67721H10.9546ZM1.67692 1.92721H11.2046V1.42721H1.67692V1.92721ZM1.92692 10.203V1.67721H1.42692V10.203H1.92692ZM18.2369 27.513H27.7637V27.013H18.2369V27.513ZM17.9869 18.7372V27.263H18.4869V18.7372H17.9869ZM27.7637 18.4872H18.2369V18.9872H27.7637V18.4872ZM28.0137 27.263V18.7372H27.5137V27.263H28.0137ZM27.5137 35.7973V40.0405H28.0137V35.7973H27.5137ZM18.2369 36.0473H27.7637V35.5473H18.2369V36.0473ZM18.4869 44.3231V35.7973H17.9869V44.3231H18.4869ZM27.7637 44.0731H18.2369V44.5731H27.7637V44.0731ZM27.5137 40.0796V44.3231H28.0137V40.0796H27.5137ZM27.5132 40.0601C27.5132 40.0713 27.5135 40.0825 27.5141 40.0937L28.0133 40.0654C28.0132 40.0637 28.0132 40.0619 28.0132 40.0601H27.5132ZM27.5133 40.0472L27.5132 40.0567L28.0132 40.0634L28.0133 40.054L27.5133 40.0472ZM27.514 40.0301L27.5135 40.0401L28.0131 40.0611L28.0135 40.051L27.514 40.0301ZM34.7952 44.5731H44.3229V44.0731H34.7952V44.5731ZM34.5452 35.7973V44.3231H35.0452V35.7973H34.5452ZM44.3229 35.5473H34.7952V36.0473H44.3229V35.5473ZM44.5729 44.3231V35.7973H44.0729V44.3231H44.5729ZM33.1613 16.0126C33.7419 16.2213 34.3436 16.3251 34.9441 16.3251V15.8251C34.4015 15.8251 33.857 15.7313 33.3304 15.542L33.1613 16.0126ZM29.9879 9.27989C29.0064 12.0111 30.4298 15.0312 33.1613 16.0126L33.3304 15.542C30.8587 14.654 29.5704 11.9203 30.4584 9.44898L29.9879 9.27989ZM36.7201 6.10608C33.9884 5.12613 30.969 6.54866 29.9879 9.27992L30.4584 9.44895C31.3461 6.97775 34.0792 5.68989 36.5513 6.57671L36.7201 6.10608ZM39.7014 8.81521C39.1022 7.54425 38.043 6.58137 36.7202 6.10612L36.5512 6.57667C37.7491 7.00707 38.7065 7.87736 39.2491 9.02842L39.7014 8.81521ZM39.8937 12.8388C40.3689 11.5164 40.3005 10.0865 39.7014 8.81525L39.2491 9.02838C39.7917 10.1798 39.8535 11.4721 39.4231 12.6697L39.8937 12.8388ZM37.1845 15.82C38.4559 15.2209 39.4188 14.1616 39.8937 12.8388L39.4231 12.6698C38.993 13.8677 38.1228 14.8251 36.9714 15.3677L37.1845 15.82ZM34.9441 16.3251C35.71 16.3251 36.4725 16.1559 37.1846 15.82L36.9713 15.3678C36.3256 15.6724 35.6359 15.8251 34.9441 15.8251V16.3251ZM31.095 9.67797C31.6931 8.01329 33.268 6.97348 34.9451 6.97348V6.47348C33.0644 6.47348 31.2963 7.6389 30.6245 9.50892L31.095 9.67797ZM33.5587 14.9051C31.4388 14.1433 30.3333 11.7983 31.095 9.67797L30.6245 9.50891C29.7693 11.8891 31.0099 14.5205 33.3896 15.3756L33.5587 14.9051ZM36.6829 14.7559C35.695 15.2212 34.587 15.2747 33.5587 14.9051L33.3896 15.3756C34.5429 15.7901 35.7883 15.7299 36.8959 15.2082L36.6829 14.7559ZM38.7862 12.4414C38.4169 13.469 37.6706 14.2904 36.6828 14.7559L36.896 15.2082C38.0038 14.6861 38.8426 13.7629 39.2567 12.6105L38.7862 12.4414ZM38.6367 9.31736C39.1025 10.3051 39.1554 11.4137 38.7862 12.4414L39.2567 12.6105C39.6708 11.458 39.6114 10.2119 39.0889 9.10409L38.6367 9.31736ZM36.3221 7.21428C37.3498 7.58355 38.1711 8.32986 38.6367 9.31733L39.0889 9.10412C38.5669 7.99669 37.6436 7.15783 36.4912 6.74373L36.3221 7.21428ZM34.9451 6.97351C35.4024 6.97351 35.8675 7.05069 36.322 7.21424L36.4913 6.74377C35.9814 6.56027 35.4589 6.47351 34.9451 6.47351V6.97351ZM34.8515 6.95532L34.8516 6.95536L35.0387 6.49166L35.0386 6.49163L34.8515 6.95532Z" fill="#005C97"/>
</g>
</svg>
