<svg width="37" height="44" viewBox="0 0 37 44" fill="none" xmlns="http://www.w3.org/2000/svg">
<g opacity="0.4">
<path d="M37 36.9936V36.189C37 32.7717 35.6928 29.5352 33.2298 26.8231C31.2853 24.6895 28.6926 23.008 25.765 21.9593C25.7434 21.8689 25.7109 21.7785 25.6569 21.6971C26.9857 20.8021 28.1308 19.6721 29.0058 18.3522C30.2806 16.4356 30.9612 14.2297 30.9612 11.9515C30.9612 10.2338 30.5723 8.59749 29.8809 7.1239L28.9842 5.54181C26.7372 2.20588 22.8158 0 18.3542 0C13.8926 0 9.96029 2.21492 7.72409 5.54181L6.82745 7.13294C6.13606 8.60653 5.75796 10.2338 5.75796 11.9515C5.75796 14.2478 6.44934 16.4717 7.74569 18.3974C8.64233 19.7263 9.80905 20.8654 11.1594 21.7604C11.1162 21.8418 11.0946 21.9232 11.0946 22.0136C8.19942 23.0803 5.62832 24.7709 3.7162 26.8954C1.28555 29.5895 0 32.8079 0 36.189V43.2587C0 43.6655 0.399708 44 0.885839 44H36.1142C36.6003 44 37 43.6655 37 43.2587V36.9936ZM35.2175 42.5174H1.77168V36.189C1.77168 29.9873 6.53577 24.5991 13.6225 22.8001C13.9682 22.7097 14.2058 22.4656 14.2491 22.1672C14.2923 21.8689 14.0978 21.5796 13.7845 21.444C9.9819 19.7263 7.51883 16.0016 7.51883 11.9515C7.51883 6.18369 12.3801 1.48264 18.3434 1.48264C24.3174 1.48264 29.1679 6.17464 29.1679 11.9515C29.1679 15.9564 26.748 19.6721 22.9994 21.3988C22.6861 21.5435 22.5133 21.8328 22.5457 22.1311C22.5889 22.4294 22.8374 22.6735 23.1831 22.7639C30.2698 24.4907 35.2175 30.0144 35.2175 36.189V42.5174Z" fill="#005C97"/>
<path d="M18.8633 30.9095C16.9759 30.7919 16.0231 30.141 16.0231 28.9838C16.0231 28.5589 16.2227 27.1757 18.8542 27.1757C20.043 27.1757 21.0048 27.447 21.8125 28.0256L22.729 26.9588C21.9123 26.3621 21.0502 26.0457 19.9432 25.9191L19.4078 25.8649V24.3009H17.9559V25.892L17.475 25.9824C16.2681 26.2084 14.2445 26.9136 14.2445 29.0742C14.2445 31.4338 16.6946 32.1118 18.7544 32.2655C19.7254 32.3198 21.7399 32.4373 21.7399 34.146C21.7399 35.3212 20.4876 36.2343 18.9178 36.1981C17.7018 36.1801 15.9505 35.6467 14.8162 34.7878L13.9995 35.9721C14.9795 36.8671 16.0866 37.3734 17.4387 37.5452L17.9559 37.6175V39.1905H19.4078V37.6356L19.925 37.5723C22.1573 37.283 23.5456 35.9993 23.5456 34.2273C23.5456 32.0847 22.1845 31.1264 18.8633 30.9095Z" fill="#005C97"/>
</g>
</svg>
