<svg width="40" height="40" viewBox="0 0 40 40" fill="none" xmlns="http://www.w3.org/2000/svg">
<path d="M11.328 10.3993L14.7613 14.085C16.313 13.057 18.2723 12.8047 20.0567 13.4447L22.0741 8.51773C20.2121 6.94647 20.9877 3.33852 23.9558 3.33852C27.8352 3.33852 27.7576 9.21613 23.9365 9.15771L21.7834 14.395C22.9471 15.326 23.7427 16.6839 23.9753 18.1775L30.1245 18.7401C30.3571 14.628 35.4394 12.8044 38.1937 15.7336C41.1228 18.8373 38.8724 23.7058 34.8184 23.7058C32.7042 23.7058 31.5209 22.3288 31.5016 22.3288C31.0359 21.8827 30.6868 21.3397 30.4541 20.7382L23.9366 20.1564C23.6455 21.8246 22.6369 23.2794 21.2016 24.1716L22.0939 30.6698C25.7599 31.3486 27.2343 35.9264 24.5381 38.6229C23.704 39.4763 22.5207 40 21.2213 40C19.107 40 17.9237 38.6229 17.8848 38.6229C15.266 36.0041 16.5851 31.5817 20.1156 30.7283L19.3396 24.9284C17.303 25.3745 15.2467 24.7346 13.8112 23.3183L13.7723 23.2794L7.5456 25.3356C7.60368 29.4866 1.53224 29.4673 1.53224 25.4133C1.53224 22.2903 5.31474 21.437 6.90527 23.4736L12.6082 21.5919C11.6772 19.5553 11.9487 17.1691 13.3066 15.4236L9.87329 11.7188C5.6639 14.4734 0 11.4473 0 6.38458C0 0.720421 6.86669 -2.13106 10.8816 1.86488C13.1897 4.17299 13.3838 7.85863 11.3276 10.3998L11.328 10.3993ZM23.5486 7.10178C25.2945 7.50904 25.1972 5.31708 23.9559 5.31708C22.8503 5.31708 22.7726 6.77185 23.5486 7.10178ZM20.8913 16.2378C18.3697 13.7162 14.0246 15.5006 14.0246 19.0893C14.0246 20.1948 14.4903 21.2035 15.2079 21.9212C15.2079 22.2316 18.4085 24.404 20.8913 21.9212C22.5014 20.3111 22.4238 17.6538 20.8913 16.2378ZM36.7588 17.0719C34.1983 14.5115 30.3381 18.3909 32.8793 20.9321C34.6056 22.6584 37.554 21.4363 37.554 19.0116C37.554 18.2744 37.2437 17.5372 36.7588 17.0719H36.7588ZM23.1612 33.3661C20.6008 30.8056 16.7406 34.6851 19.2818 37.2263C21.0081 38.9525 23.9565 37.7304 23.9565 35.3058C23.9565 34.5686 23.6462 33.8314 23.1612 33.3661H23.1612ZM5.49013 24.9476C5.02445 23.7644 3.00738 24.4239 3.58929 25.8983C4.05498 27.062 6.07204 26.4025 5.49013 24.9476ZM9.48608 3.26108C6.73146 0.506468 1.97914 2.46581 1.97914 6.38407C1.97914 10.2831 6.73155 12.2617 9.48608 9.4878C11.2124 7.78078 11.2124 4.98772 9.48608 3.26108Z" fill="#005C97"/>
</svg>
