<svg width="32" height="41" viewBox="0 0 32 41" fill="none" xmlns="http://www.w3.org/2000/svg">
<path fill-rule="evenodd" clip-rule="evenodd" d="M29.2328 15.447L31.1335 18.0094L31.1334 18.0091C31.4024 18.3716 31.3491 18.8799 31.0108 19.1787L31.0105 19.1789L28.6417 21.2714L29.3719 24.415C29.4756 24.8599 29.2168 25.3092 28.7797 25.4431H28.7795L25.8112 26.3523L25.582 27.6346L30.7037 34.6787C30.9154 34.9696 30.9258 35.3609 30.7302 35.6628C30.5346 35.9647 30.1733 36.1152 29.8212 36.041H29.821L25.1075 35.049L24.6219 39.8815C24.5858 40.2403 24.3322 40.5396 23.984 40.6339C23.6358 40.728 23.2657 40.5975 23.0535 40.3058L16.8796 31.8155L15.6524 31.0367L14.4598 31.7937L8.2079 40.2467C7.99329 40.5367 7.62208 40.6642 7.27473 40.5669C6.92738 40.47 6.67583 40.1687 6.64293 39.8094L6.19717 34.9733L1.47643 35.9254C1.12387 35.9964 0.763709 35.8432 0.570678 35.5399C0.377644 35.2365 0.391328 34.8455 0.605034 34.5561L5.72171 27.631L5.49315 26.3526L2.52488 25.4434C2.08786 25.3094 1.82902 24.8602 1.93267 24.4153L1.93238 24.415L2.66259 21.2714L0.293799 19.1789C-0.0445153 18.8803 -0.0978003 18.3719 0.171226 18.0094L2.07187 15.447L0.725841 12.5288C0.536008 12.1171 0.694394 11.6285 1.08978 11.4067L3.81932 9.87378L3.73663 6.64665C3.72501 6.18515 4.07585 5.79471 4.53587 5.75745L4.53558 5.75715L7.61275 5.50763L8.7992 2.54077C8.97331 2.10346 9.46451 1.88481 9.90619 2.04756L12.8063 3.1114L15.043 0.913214C15.3813 0.581012 15.9234 0.581012 16.262 0.913214H16.2617L18.4984 3.1114L21.3985 2.04756C21.8402 1.88481 22.3314 2.10346 22.5055 2.54077L23.6917 5.50793L26.7688 5.75745C27.2289 5.79502 27.5797 6.18518 27.5681 6.64665H27.5678L27.4851 9.87379L30.2149 11.4067C30.6103 11.6289 30.7687 12.1171 30.5789 12.5288L29.2328 15.447ZM7.84004 33.8497L8.16555 37.3796L11.8256 32.4311L10.0868 29.8108L7.03322 30.228C6.71967 30.2696 6.40843 30.1372 6.22064 29.8827L3.34523 33.7745L6.80209 33.0772C7.04433 33.0283 7.29559 33.0845 7.49357 33.2318C7.69155 33.3792 7.81762 33.6039 7.84004 33.8497ZM23.8261 33.2973C24.0253 33.1514 24.2771 33.0973 24.5185 33.1482L27.968 33.8743L25.0749 29.8948C24.8865 30.142 24.5799 30.269 24.2716 30.2279V30.2282L21.218 29.811L19.4783 32.4328L23.1195 37.4401L23.4741 33.9119C23.4989 33.6665 23.6267 33.4428 23.8261 33.2973ZM26.8308 21.1602C26.7583 20.849 26.8626 20.5232 27.1019 20.3118L29.2608 18.4041L27.5287 16.0691C27.3392 15.8137 27.3043 15.4757 27.4373 15.1869L28.663 12.5296L26.1763 11.1335C25.8951 10.9757 25.7245 10.6752 25.7329 10.3529L25.808 7.42453L23.0139 7.19772C22.6849 7.17093 22.3995 6.96014 22.277 6.65355L22.2767 6.65384L21.204 3.97118L18.5805 4.93373C18.2652 5.04961 17.9111 4.97333 17.6715 4.73749L15.6521 2.7527L13.6326 4.73749C13.393 4.97303 13.039 5.04961 12.7237 4.93373L12.7234 4.93344L10.0998 3.97089L9.0272 6.65355C8.90463 6.96014 8.6193 7.17093 8.2903 7.19743L5.49613 7.42423L5.57125 10.3529C5.57969 10.6753 5.40879 10.9757 5.12783 11.1332L2.64112 12.5296L3.86685 15.1869C3.9999 15.4757 3.96496 15.8137 3.77542 16.0691L2.04338 18.4041L4.20258 20.3118C4.44191 20.5232 4.54614 20.849 4.47364 21.1602L3.81011 24.0182L6.51028 24.8454C6.82211 24.9409 7.05445 25.2026 7.11151 25.5237L7.62423 28.3921L10.3916 28.0139C10.7221 27.9685 11.0494 28.1164 11.234 28.3945H11.2337L12.8152 30.7779L15.1861 29.2729C15.4706 29.0921 15.8339 29.0921 16.1184 29.2729L17.9142 30.4131L17.9186 30.4157L18.4892 30.7779L20.0705 28.3945C20.2551 28.1165 20.5824 27.9686 20.9128 28.014L23.6802 28.3922L24.193 25.5238C24.2503 25.2026 24.4824 24.9409 24.7942 24.8454L27.4944 24.0182L26.8308 21.1602ZM9.68341 10.7811C11.2667 9.19809 13.414 8.30859 15.6529 8.30859C17.891 8.3109 20.0368 9.20122 21.6195 10.784C23.2022 12.3667 24.0926 14.5125 24.0949 16.7506C24.0949 18.9895 23.2054 21.1368 21.6224 22.7201C20.0391 24.303 17.8919 25.1925 15.6529 25.1925C13.414 25.1925 11.2667 24.303 9.68341 22.7201C8.10044 21.1368 7.21094 18.9895 7.21094 16.7506C7.21094 14.5116 8.10044 12.3643 9.68341 10.7811ZM10.9132 21.4901C12.1701 22.747 13.8751 23.4533 15.6529 23.4533C17.4301 23.4513 19.1337 22.7444 20.3903 21.4878C21.6469 20.2311 22.3538 18.5276 22.3558 16.7504C22.3558 14.9726 21.6495 13.2676 20.3926 12.0107C19.1357 10.7538 17.4307 10.0475 15.6529 10.0475C13.8751 10.0475 12.1701 10.7539 10.9132 12.0107C9.65632 13.2676 8.94999 14.9726 8.94999 16.7504C8.94999 18.5282 9.65635 20.2332 10.9132 21.4901Z" fill="#005C97"/>
</svg>
