<svg width="45" height="46" viewBox="0 0 45 46" fill="none" xmlns="http://www.w3.org/2000/svg">
<path opacity="0.4" d="M43.9493 16.771H41.2738V14.6744C41.2738 14.5329 41.2193 14.3967 41.1215 14.2943L39.1123 12.1927C39.8612 11.1515 39.8021 9.71205 38.9028 8.73447L33.8058 3.25711C33.6393 2.78691 33.3715 2.3524 33.0155 1.99765C31.7022 0.689112 29.5665 0.689112 28.2533 1.99765C27.6168 2.6316 27.2661 3.47536 27.2661 4.37243C27.2661 5.26986 27.6168 6.11316 28.2533 6.74751C28.6135 7.10647 29.0551 7.37493 29.5331 7.54023L35.0266 12.6261C35.5541 13.1077 36.2182 13.3471 36.8811 13.3471C37.3768 13.3471 37.8687 13.2059 38.3052 12.9402L40.1735 14.8941V16.7703L23.0392 16.771V14.7403C24.669 14.5259 25.9319 13.1356 25.9319 11.4535V8.33363C25.9319 6.50346 24.4384 5.01466 22.603 5.01466C20.7673 5.01466 19.274 6.50346 19.274 8.33363V11.4535C19.274 13.057 20.4208 14.3981 21.9392 14.7057V16.7709H4.82554V14.6635L7.60891 11.8903L7.73704 12.018C8.2496 12.5289 8.92248 12.7843 9.59583 12.7843C10.2688 12.7843 10.942 12.5289 11.4546 12.0184L16.996 6.49695C17.4932 6.00183 17.7668 5.34294 17.7668 4.64223C17.7668 3.94152 17.4932 3.28264 16.996 2.78751L15.9706 1.76625C14.9454 0.744585 13.2782 0.744585 12.253 1.76625L6.71199 7.2873C6.21479 7.78242 5.94124 8.44131 5.94124 9.14202C5.94124 9.84273 6.21479 10.5016 6.71199 10.9967L6.82977 11.1145L3.88719 14.0464C3.78361 14.1496 3.72568 14.2896 3.72568 14.4357V16.7713L1.05015 16.7709C0.7463 16.7709 0.5 17.0171 0.5 17.3209V23.2734C0.5 23.5772 0.7463 23.8234 1.05015 23.8234H2.40903V44.45C2.40903 44.7538 2.65533 45 2.95919 45C3.26304 45 3.50934 44.7538 3.50934 44.45L3.50896 23.8234H41.491V44.45C41.491 44.7538 41.7373 45 42.0412 45C42.3451 45 42.5913 44.7538 42.5913 44.45L42.591 23.8234H43.9499C44.2537 23.8234 44.5 23.5772 44.5 23.2734V17.3209C44.5 17.0175 44.2537 16.7713 43.9499 16.7713L43.9493 16.771ZM28.3658 4.37284C28.3658 3.77033 28.6017 3.20312 29.0295 2.77702C29.9142 1.89608 31.3536 1.8957 32.2383 2.77663C32.4255 2.96302 32.5763 3.18201 32.688 3.41903L29.6894 6.42461C29.4458 6.31301 29.221 6.15999 29.0295 5.96976C28.6017 5.5429 28.3658 4.97608 28.3658 4.37277L28.3658 4.37284ZM35.7717 11.8172L30.6205 7.04863L33.3167 4.34643L38.0954 9.48134C38.6966 10.1348 38.6751 11.1385 38.0455 11.7656C37.4202 12.3884 36.42 12.4099 35.7717 11.8174L35.7717 11.8172ZM20.3728 11.4537V8.3338C20.3728 7.10999 21.3726 6.11444 22.6017 6.11444C23.8309 6.11444 24.8307 7.11008 24.8307 8.3338V11.4537C24.8307 12.6775 23.8309 13.6727 22.6017 13.6727C21.3729 13.6727 20.3728 12.6771 20.3728 11.4537ZM7.48815 8.06606L13.0292 2.54462C13.3276 2.2474 13.7193 2.09858 14.1111 2.09858C14.5032 2.09858 14.8949 2.24739 15.1934 2.54462L16.2188 3.56628C16.5073 3.85353 16.6662 4.23551 16.6662 4.64204C16.6662 5.04856 16.5073 5.43054 16.2188 5.71779L10.6774 11.2392C10.0805 11.8341 9.10946 11.8333 8.5133 11.2392L7.48815 10.2176C7.19965 9.93033 7.04082 9.54835 7.04082 9.14182C7.04082 8.7353 7.19965 8.35332 7.48815 8.06606ZM43.3989 22.7234H1.59927V17.8703H43.3989V22.7234Z" fill="#005C97" stroke="#005C97" stroke-width="0.3"/>
</svg>
