<svg width="47" height="44" viewBox="0 0 47 44" fill="none" xmlns="http://www.w3.org/2000/svg">
<path opacity="0.4" d="M44.2337 25.4542C42.8347 23.8778 40.9674 22.6242 38.8651 21.8308C41.2287 20.1478 42.6417 17.4849 42.6417 14.561C42.6417 9.70947 38.6766 5.73966 33.7232 5.53517C31.5387 2.20946 27.7089 0 23.3583 0C19.0065 0 15.1755 2.21091 12.9918 5.53807C8.07368 5.77925 4.14903 9.73424 4.14903 14.5608C4.14903 17.4723 5.62094 20.1976 8.00542 21.8785C5.93401 22.6829 4.09678 23.9372 2.72283 25.5034C0.941529 27.5335 0 29.9535 0 32.5016V37.732C0 38.1416 0.386798 38.4736 0.864115 38.4736H5.46284V43.2584C5.46284 43.6681 5.84964 44 6.32695 44H40.673C41.1504 44 41.5372 43.6681 41.5372 43.2584V38.4736H46.1359C46.6132 38.4736 47 38.1416 47 37.732V32.5016C47.0008 29.9312 46.0441 27.4943 44.2336 25.4543L44.2337 25.4542ZM5.46335 36.191V36.9908H1.72873V32.5019C1.72873 27.9947 5.10204 24.0863 10.1234 22.7758C10.4571 22.6886 10.697 22.4379 10.7316 22.1398C10.7661 21.8418 10.5884 21.5554 10.281 21.4135C7.60556 20.1782 5.87724 17.4885 5.87724 14.5614C5.87724 10.8578 8.57205 7.77088 12.1128 7.13311C11.4425 8.60707 11.0693 10.236 11.0693 11.9483C11.0693 14.2433 11.74 16.4726 13.0099 18.3946C13.8876 19.7238 15.02 20.863 16.3396 21.7557C16.3017 21.8359 16.2787 21.9217 16.275 22.0103C13.4518 23.076 10.945 24.7668 9.081 26.8919C6.71454 29.5894 5.46321 32.8049 5.46321 36.1913L5.46335 36.191ZM39.8095 42.5171H7.19093V36.191C7.19093 29.9852 11.8358 24.6035 18.7499 22.7992C19.0836 22.7119 19.3235 22.4612 19.3585 22.1628C19.393 21.8648 19.2153 21.5784 18.9079 21.4365C15.1959 19.7224 12.7973 15.998 12.7973 11.9481C12.7973 6.17771 17.5348 1.48343 23.3577 1.48343C29.1805 1.48343 33.918 6.17789 33.918 11.9481C33.918 15.9568 31.5556 19.6649 27.9 21.3958C27.5943 21.5406 27.4202 21.8287 27.4585 22.1267C27.4968 22.4244 27.7404 22.673 28.0753 22.7571C34.9837 24.4878 39.8091 30.012 39.8091 36.1914L39.8095 42.5171ZM45.2723 36.9907H41.5377V36.1909C41.5377 32.7744 40.2662 29.536 37.8607 26.8246C35.9691 24.6932 33.4323 23.0077 30.579 21.9568C30.563 21.8628 30.526 21.7735 30.4708 21.6923C31.767 20.7978 32.8784 19.6636 33.7388 18.3457C34.9873 16.4345 35.6468 14.2219 35.6468 11.9471C35.6468 10.2299 35.2715 8.5967 34.5979 7.11956C38.1778 7.72517 40.913 10.8295 40.913 14.5603C40.913 17.4577 39.2107 20.1358 36.5755 21.383C36.2698 21.5278 36.0957 21.8159 36.134 22.1136C36.1722 22.4113 36.4154 22.6603 36.7508 22.7439C41.768 24.0007 45.2723 28.0129 45.2723 32.5008L45.2727 36.9904L45.2723 36.9907Z" fill="#005C97"/>
</svg>
