<svg width="19" height="19" viewBox="0 0 19 19" fill="none" xmlns="http://www.w3.org/2000/svg">
<path d="M19 11.6489V19H14.9277V12.1412C14.9277 10.4182 14.3387 9.24237 12.8646 9.24237C11.7394 9.24237 11.0697 10.0348 10.7751 10.8014C10.6677 11.0754 10.6401 11.4569 10.6401 11.8405V19H6.56638C6.56638 19 6.62124 7.38348 6.56638 6.17992H10.6397V7.99711C10.6314 8.0107 10.6207 8.02536 10.6129 8.03853H10.6397V7.99711C11.1808 7.12483 12.1473 5.87874 14.3106 5.87874C16.9908 5.87869 19 7.71105 19 11.6489ZM2.30513 0C0.911531 0 0 0.956606 0 2.21458C0 3.44513 0.885159 4.43077 2.25106 4.43077H2.27828C3.69887 4.43077 4.58235 3.44532 4.58235 2.21458C4.55558 0.956606 3.69887 0 2.30513 0ZM0.241941 19H4.31408V6.17992H0.241941V19Z" fill="white"/>
</svg>
