<svg width="26" height="26" viewBox="0 0 26 26" fill="none" xmlns="http://www.w3.org/2000/svg">
<rect x="0.835938" y="25.3496" width="25" height="25" rx="12.5" transform="rotate(-90 0.835938 25.3496)" fill="#001F44"/>
<path d="M18.0234 13.6309H14.1172V17.5371C14.1172 17.9668 13.7656 18.3184 13.3359 18.3184C12.9062 18.3184 12.5547 17.9668 12.5547 17.5371V13.6309H8.64844C8.21875 13.6309 7.86719 13.2793 7.86719 12.8496C7.86719 12.4199 8.21875 12.0684 8.64844 12.0684H12.5547V8.16211C12.5547 7.73242 12.9062 7.38086 13.3359 7.38086C13.7656 7.38086 14.1172 7.73242 14.1172 8.16211V12.0684H18.0234C18.4531 12.0684 18.8047 12.4199 18.8047 12.8496C18.8047 13.2793 18.4531 13.6309 18.0234 13.6309Z" fill="#6CCBFC"/>
</svg>
