<svg width="34" height="42" viewBox="0 0 34 42" fill="none" xmlns="http://www.w3.org/2000/svg">
<path d="M26.3441 0.850311V0.850316C26.6284 0.853308 26.8919 0.999787 27.0442 1.24007L26.3441 0.850311ZM26.3441 0.850311L26.3429 0.850308M26.3441 0.850311L26.3429 0.850308M26.3429 0.850308C26.0543 0.849559 25.7856 0.996829 25.6311 1.24051L19.0483 11.5947L19.0483 11.5947C18.8838 11.8537 18.8733 12.182 19.0217 12.4511L26.3429 0.850308ZM22.4154 12.8852L19.7601 12.8852C19.7601 12.8852 19.76 12.8852 19.7599 12.8852H19.7596V12.7352L22.4154 12.8852ZM22.4154 12.8852L22.4154 40.3122L22.4154 40.3128C22.4172 40.7763 22.7944 41.1506 23.2578 41.1491M22.4154 12.8852L23.2578 41.1491M30.26 12.8852V40.3122V40.3128C30.2582 40.7763 29.881 41.1506 29.4176 41.1491C29.4174 41.1491 29.4172 41.1491 29.417 41.1491M30.26 12.8852L29.4176 40.9991L29.417 41.1491M30.26 12.8852L32.9158 12.8852L32.916 12.8852C33.2225 12.8849 33.5039 12.7169 33.6508 12.4487L30.26 12.8852ZM29.417 41.1491H23.2584M29.417 41.1491H23.2584M23.2584 41.1491L23.2578 41.1491M23.2584 41.1491L23.2578 41.1491M26.337 3.24929L31.3901 11.2042L29.4176 11.2045L29.417 11.2045C28.9533 11.2064 28.579 11.5838 28.5805 12.0474M26.337 3.24929L28.5805 12.0474M26.337 3.24929L21.2854 11.2045H23.2578H23.2584C23.7221 11.2064 24.0966 11.5839 24.0947 12.0476M26.337 3.24929L28.5805 12.0474M28.5805 12.0474V12.0469H28.7305L28.5805 12.0474ZM28.5805 12.0474V39.47H24.0947V12.0476M24.0947 12.0476L23.9447 12.0469M24.0947 12.0476V12.0469H23.9447M23.9447 12.0469C23.9462 11.6661 23.6386 11.3561 23.2578 11.3545M23.9447 12.0469L23.2578 11.3545M23.2578 11.3545H21.1901H23.2578ZM1.69294 27.7714C1.46902 27.7706 1.25436 27.8595 1.09604 28.0174L1.09591 28.0176L1.69294 27.7714ZM1.69294 27.7714L7.85754 27.7717H7.85814C8.32175 27.7735 8.69606 28.1508 8.69474 28.6143M1.69294 27.7714L8.69474 28.6143M8.69474 28.6143C8.69474 28.6144 8.69473 28.6145 8.69473 28.6146L8.54473 28.6141H8.69474V28.6143ZM8.69474 28.6143V40.3131V40.3137C8.69285 40.7748 8.31947 41.1481 7.85814 41.15L7.85753 41.15L1.69305 41.15M8.69474 28.6143L1 28.6141H0.850004V28.6143L0.850003 40.3131L0.850005 40.3137C0.851878 40.7772 1.229 41.1515 1.69244 41.15M1.69305 41.15L1.69244 41V41.15M1.69305 41.15C1.69284 41.15 1.69264 41.15 1.69244 41.15M1.69305 41.15L1.69244 41.15M18.6253 40.9993H12.4602H18.6253ZM18.6253 40.9993C19.004 40.9978 19.3106 40.6911 19.3122 40.3124L18.6253 40.9993ZM33.6227 11.5943L27.0443 1.24025L33.6508 12.4486C33.7982 12.1801 33.7872 11.8525 33.6227 11.5943ZM12.4602 19.447H12.4598C11.9973 19.4482 11.6229 19.8226 11.6218 20.2851V20.2855L11.6218 40.3124L11.6218 40.313C11.6236 40.7749 11.9982 41.1482 12.4598 41.1493H12.4602H18.6253L18.6259 41.1493C19.087 41.1474 19.4603 40.7741 19.4622 40.313V40.3124V20.2855V20.2852C19.4614 19.8234 19.0877 19.4489 18.6259 19.447H18.6253H12.4602ZM13.3026 21.1276H17.7831V39.4697L13.3026 39.47V21.1276ZM2.52933 29.4507H7.0151V39.4704L2.52964 39.4707L2.52933 29.4507Z" fill="#005C97" stroke="#005C97" stroke-width="0.3"/>
</svg>
