<svg width="44" height="41" viewBox="0 0 44 41" fill="none" xmlns="http://www.w3.org/2000/svg">
<path d="M20.511 0.796875C9.52662 0.796875 0.601562 9.76496 0.601562 20.7967C0.601562 31.8285 9.52662 40.7965 20.511 40.7965C20.7692 40.7999 21.0176 40.7001 21.2015 40.5189C21.3854 40.3377 21.4886 40.0906 21.4886 39.8324C21.4886 39.5746 21.3854 39.3272 21.2015 39.146C21.0176 38.9651 20.7692 38.8649 20.511 38.8686C10.5739 38.8686 2.52926 30.7917 2.52926 20.7965C2.52926 10.8017 10.5737 2.72436 20.511 2.72436C30.4481 2.72436 38.4782 10.8017 38.4782 20.7965C38.4782 23.393 37.9333 25.8598 36.957 28.0855L36.4148 24.8929C36.3375 24.3964 35.8917 24.0424 35.3909 24.0798C35.1166 24.1003 34.8641 24.2374 34.6974 24.4559C34.5303 24.6748 34.4651 24.9541 34.5172 25.2241L35.5264 31.0525C35.5298 31.1187 35.5398 31.1843 35.5563 31.2481V31.2784C35.6101 31.5853 35.8088 31.8472 36.0898 31.9817C36.3708 32.1165 36.6993 32.1067 36.9722 31.9561L42.5142 28.8991C42.9801 28.6412 43.1485 28.0546 42.8907 27.5887C42.6329 27.1227 42.0463 26.9543 41.5803 27.2122L38.7492 28.7783C39.8111 26.3331 40.4058 23.6334 40.4058 20.7965C40.4058 9.76472 31.4955 0.796875 20.511 0.796875ZM19.2763 5.60097C18.5962 5.60097 18.0052 6.09042 17.8755 6.76077L17.4086 9.12503C16.3584 9.40271 15.3651 9.8256 14.4269 10.3752L12.424 9.03459C11.8599 8.65607 11.082 8.72263 10.6017 9.20032L8.89971 10.9171C8.419 11.3978 8.33899 12.1596 8.71918 12.7243L10.0594 14.7275C9.51284 15.667 9.11419 16.6731 8.83949 17.7243L6.47522 18.1913C5.80357 18.3197 5.31542 18.9271 5.31542 19.6068V22.0165C5.31542 22.6965 5.80791 23.3013 6.47522 23.432L8.83949 23.899C9.11784 24.9484 9.53938 25.9432 10.0897 26.8807L8.74905 28.8839C8.36918 29.4489 8.43406 30.2104 8.91477 30.6911L10.6315 32.4078C11.1123 32.8886 11.874 32.9534 12.4388 32.5736L14.4419 31.2182C15.3859 31.7691 16.3826 32.1769 17.4388 32.4529L17.9057 34.8326C18.0378 35.4985 18.6409 35.992 19.3213 35.992H21.7309C22.4029 35.992 22.9936 35.4905 23.1313 34.8326H23.1465C23.1475 34.8275 23.1458 34.8218 23.1465 34.8175L23.6134 32.4529C24.6629 32.1745 25.6576 31.753 26.5951 31.203L28.5983 32.5584V32.5433H28.6134C29.1789 32.9158 29.9268 32.8576 30.4055 32.3776L32.1223 30.676C32.603 30.1953 32.6678 29.4187 32.288 28.8536L30.9477 26.8356C31.4913 25.8987 31.9088 24.9007 32.1825 23.8539L34.5471 23.387C35.2144 23.2562 35.7066 22.6511 35.7066 21.9714V19.5618C35.7052 18.8834 35.2158 18.2921 34.5471 18.161L32.1674 17.6793C31.8901 16.6341 31.4645 15.6465 30.9176 14.7123L32.273 12.6943C32.6529 12.1292 32.5729 11.3678 32.0922 10.8871L30.3905 9.18513C29.9102 8.70509 29.1316 8.62542 28.5682 9.00461L26.5654 10.3449C25.6254 9.79793 24.6193 9.39961 23.5685 9.12492L23.1015 6.76065C22.9718 6.09169 22.3822 5.60085 21.7008 5.60085L19.2763 5.60097ZM19.6827 7.52849H21.2792L21.7911 10.0588C21.8681 10.4383 22.1646 10.7348 22.5441 10.8118C23.8188 11.0693 24.9951 11.556 26.0833 12.2724C26.407 12.4882 26.8289 12.4882 27.1526 12.2724L29.3061 10.8269L30.4356 11.9564L29.0049 14.1098C28.789 14.4336 28.789 14.8555 29.0049 15.1792C29.7256 16.2653 30.2187 17.4456 30.4809 18.7183C30.5579 19.0979 30.8544 19.3944 31.2339 19.4713L33.779 19.9682V21.5646L31.2491 22.0766C30.8635 22.1482 30.5599 22.4461 30.4809 22.8296C30.2234 24.1037 29.7363 25.2805 29.0199 26.3687C28.8041 26.6925 28.8041 27.1144 29.0199 27.4381L30.4658 29.5915L29.3363 30.721L27.1976 29.2903C26.8735 29.0634 26.4436 29.0574 26.1134 29.2755C25.0276 29.9959 23.8477 30.4891 22.5743 30.7513C22.1904 30.8303 21.8929 31.1341 21.8213 31.5194L21.3241 34.0645H19.728L19.2308 31.5194C19.1538 31.1399 18.8573 30.8434 18.4778 30.7664C17.2034 30.5089 16.0117 30.0221 14.9235 29.3054C14.5998 29.0896 14.1782 29.0896 13.8545 29.3054L11.7007 30.7512L10.5712 29.6217L12.0171 27.4683C12.2329 27.1446 12.2329 26.7227 12.0171 26.3989C11.2964 25.3125 10.8029 24.1322 10.5414 22.8598C10.462 22.4759 10.1585 22.1784 9.77324 22.1068L7.24296 21.6096V20.0135L9.77324 19.5163C10.1528 19.4394 10.4493 19.1429 10.5262 18.7633C10.7837 17.4889 11.2708 16.2976 11.9869 15.2091C12.2027 14.8853 12.2027 14.4638 11.9869 14.14L10.5414 11.9863L11.6709 10.8568L13.8243 12.3026C14.148 12.5184 14.5699 12.5184 14.8937 12.3026C15.9795 11.5822 17.1598 11.089 18.4328 10.8269C18.8164 10.7476 19.1142 10.444 19.1858 10.0588L19.6827 7.52849ZM20.511 13.4322C16.4586 13.4322 13.1467 16.7441 13.1467 20.7965C13.1467 24.849 16.4586 28.1609 20.511 28.1609C24.5635 28.1609 27.8753 24.849 27.8753 20.7965C27.8753 16.7441 24.5635 13.4322 20.511 13.4322ZM20.511 15.3598C23.518 15.3598 25.9478 17.7895 25.9478 20.7965C25.9478 23.8035 23.518 26.2333 20.511 26.2333C17.5041 26.2333 15.0742 23.8036 15.0742 20.7965C15.0742 17.7896 17.504 15.3598 20.511 15.3598Z" fill="#005C97"/>
</svg>
