<svg width="298" height="65" viewBox="0 0 298 65" fill="none" xmlns="http://www.w3.org/2000/svg">
<g clip-path="url(#clip0_2251_8957)">
<rect width="298" height="65" rx="5" fill="#0A7AC2"/>
<path d="M57 0H-826.333C-829.095 0 -831.333 2.23858 -831.333 5V60C-831.333 62.7614 -829.095 65 -826.333 65H96L57 0Z" fill="#003972"/>
<path d="M45.7519 33.168C46.3457 33.5638 46.3457 34.4362 45.7519 34.8321L30.5547 44.9635C29.8901 45.4066 29 44.9302 29 44.1315L29 23.8685C29 23.0698 29.8902 22.5934 30.5547 23.0365L45.7519 33.168Z" fill="white"/>
<path d="M106.58 32.126C105.704 32.126 104.912 31.976 104.204 31.676C103.508 31.376 102.956 30.944 102.548 30.38C102.14 29.816 101.93 29.15 101.918 28.382H104.618C104.654 28.898 104.834 29.306 105.158 29.606C105.494 29.906 105.95 30.056 106.526 30.056C107.114 30.056 107.576 29.918 107.912 29.642C108.248 29.354 108.416 28.982 108.416 28.526C108.416 28.154 108.302 27.848 108.074 27.608C107.846 27.368 107.558 27.182 107.21 27.05C106.874 26.906 106.406 26.75 105.806 26.582C104.99 26.342 104.324 26.108 103.808 25.88C103.304 25.64 102.866 25.286 102.494 24.818C102.134 24.338 101.954 23.702 101.954 22.91C101.954 22.166 102.14 21.518 102.512 20.966C102.884 20.414 103.406 19.994 104.078 19.706C104.75 19.406 105.518 19.256 106.382 19.256C107.678 19.256 108.728 19.574 109.532 20.21C110.348 20.834 110.798 21.71 110.882 22.838H108.11C108.086 22.406 107.9 22.052 107.552 21.776C107.216 21.488 106.766 21.344 106.202 21.344C105.71 21.344 105.314 21.47 105.014 21.722C104.726 21.974 104.582 22.34 104.582 22.82C104.582 23.156 104.69 23.438 104.906 23.666C105.134 23.882 105.41 24.062 105.734 24.206C106.07 24.338 106.538 24.494 107.138 24.674C107.954 24.914 108.62 25.154 109.136 25.394C109.652 25.634 110.096 25.994 110.468 26.474C110.84 26.954 111.026 27.584 111.026 28.364C111.026 29.036 110.852 29.66 110.504 30.236C110.156 30.812 109.646 31.274 108.974 31.622C108.302 31.958 107.504 32.126 106.58 32.126ZM115.731 21.47V24.62H119.961V26.618H115.731V29.948H120.501V32H113.211V19.418H120.501V21.47H115.731ZM125.311 21.47V24.62H129.541V26.618H125.311V29.948H130.081V32H122.791V19.418H130.081V21.47H125.311ZM147.082 19.436V32H144.562V26.654H139.18V32H136.66V19.436H139.18V24.602H144.562V19.436H147.082ZM155.394 32.126C154.218 32.126 153.138 31.85 152.154 31.298C151.17 30.746 150.39 29.984 149.814 29.012C149.238 28.028 148.95 26.918 148.95 25.682C148.95 24.458 149.238 23.36 149.814 22.388C150.39 21.404 151.17 20.636 152.154 20.084C153.138 19.532 154.218 19.256 155.394 19.256C156.582 19.256 157.662 19.532 158.634 20.084C159.618 20.636 160.392 21.404 160.956 22.388C161.532 23.36 161.82 24.458 161.82 25.682C161.82 26.918 161.532 28.028 160.956 29.012C160.392 29.984 159.618 30.746 158.634 31.298C157.65 31.85 156.57 32.126 155.394 32.126ZM155.394 29.876C156.15 29.876 156.816 29.708 157.392 29.372C157.968 29.024 158.418 28.532 158.742 27.896C159.066 27.26 159.228 26.522 159.228 25.682C159.228 24.842 159.066 24.11 158.742 23.486C158.418 22.85 157.968 22.364 157.392 22.028C156.816 21.692 156.15 21.524 155.394 21.524C154.638 21.524 153.966 21.692 153.378 22.028C152.802 22.364 152.352 22.85 152.028 23.486C151.704 24.11 151.542 24.842 151.542 25.682C151.542 26.522 151.704 27.26 152.028 27.896C152.352 28.532 152.802 29.024 153.378 29.372C153.966 29.708 154.638 29.876 155.394 29.876ZM180.489 19.436L176.979 32H174.009L171.651 23.054L169.185 32L166.233 32.018L162.849 19.436H165.549L167.763 29.192L170.319 19.436H173.127L175.539 29.138L177.771 19.436H180.489ZM188.944 19.436V32H186.424V19.436H188.944ZM199.983 19.436V21.47H196.635V32H194.115V21.47H190.767V19.436H199.983ZM222.905 19.436L219.395 32H216.425L214.067 23.054L211.601 32L208.649 32.018L205.265 19.436H207.965L210.179 29.192L212.735 19.436H215.543L217.955 29.138L220.187 19.436H222.905ZM230.383 32.126C229.207 32.126 228.127 31.85 227.143 31.298C226.159 30.746 225.379 29.984 224.803 29.012C224.227 28.028 223.939 26.918 223.939 25.682C223.939 24.458 224.227 23.36 224.803 22.388C225.379 21.404 226.159 20.636 227.143 20.084C228.127 19.532 229.207 19.256 230.383 19.256C231.571 19.256 232.651 19.532 233.623 20.084C234.607 20.636 235.381 21.404 235.945 22.388C236.521 23.36 236.809 24.458 236.809 25.682C236.809 26.918 236.521 28.028 235.945 29.012C235.381 29.984 234.607 30.746 233.623 31.298C232.639 31.85 231.559 32.126 230.383 32.126ZM230.383 29.876C231.139 29.876 231.805 29.708 232.381 29.372C232.957 29.024 233.407 28.532 233.731 27.896C234.055 27.26 234.217 26.522 234.217 25.682C234.217 24.842 234.055 24.11 233.731 23.486C233.407 22.85 232.957 22.364 232.381 22.028C231.805 21.692 231.139 21.524 230.383 21.524C229.627 21.524 228.955 21.692 228.367 22.028C227.791 22.364 227.341 22.85 227.017 23.486C226.693 24.11 226.531 24.842 226.531 25.682C226.531 26.522 226.693 27.26 227.017 27.896C227.341 28.532 227.791 29.024 228.367 29.372C228.955 29.708 229.627 29.876 230.383 29.876ZM245.163 32L242.391 27.104H241.203V32H238.683V19.436H243.399C244.371 19.436 245.199 19.61 245.883 19.958C246.567 20.294 247.077 20.756 247.413 21.344C247.761 21.92 247.935 22.568 247.935 23.288C247.935 24.116 247.695 24.866 247.215 25.538C246.735 26.198 246.021 26.654 245.073 26.906L248.079 32H245.163ZM241.203 25.214H243.309C243.993 25.214 244.503 25.052 244.839 24.728C245.175 24.392 245.343 23.93 245.343 23.342C245.343 22.766 245.175 22.322 244.839 22.01C244.503 21.686 243.993 21.524 243.309 21.524H241.203V25.214ZM257.307 32L252.735 26.402V32H250.215V19.436H252.735V25.07L257.307 19.436H260.349L255.165 25.664L260.493 32H257.307ZM266.488 32.126C265.612 32.126 264.82 31.976 264.112 31.676C263.416 31.376 262.864 30.944 262.456 30.38C262.048 29.816 261.838 29.15 261.826 28.382H264.526C264.562 28.898 264.742 29.306 265.066 29.606C265.402 29.906 265.858 30.056 266.434 30.056C267.022 30.056 267.484 29.918 267.82 29.642C268.156 29.354 268.324 28.982 268.324 28.526C268.324 28.154 268.21 27.848 267.982 27.608C267.754 27.368 267.466 27.182 267.118 27.05C266.782 26.906 266.314 26.75 265.714 26.582C264.898 26.342 264.232 26.108 263.716 25.88C263.212 25.64 262.774 25.286 262.402 24.818C262.042 24.338 261.862 23.702 261.862 22.91C261.862 22.166 262.048 21.518 262.42 20.966C262.792 20.414 263.314 19.994 263.986 19.706C264.658 19.406 265.426 19.256 266.29 19.256C267.586 19.256 268.636 19.574 269.44 20.21C270.256 20.834 270.706 21.71 270.79 22.838H268.018C267.994 22.406 267.808 22.052 267.46 21.776C267.124 21.488 266.674 21.344 266.11 21.344C265.618 21.344 265.222 21.47 264.922 21.722C264.634 21.974 264.49 22.34 264.49 22.82C264.49 23.156 264.598 23.438 264.814 23.666C265.042 23.882 265.318 24.062 265.642 24.206C265.978 24.338 266.446 24.494 267.046 24.674C267.862 24.914 268.528 25.154 269.044 25.394C269.56 25.634 270.004 25.994 270.376 26.474C270.748 26.954 270.934 27.584 270.934 28.364C270.934 29.036 270.76 29.66 270.412 30.236C270.064 30.812 269.554 31.274 268.882 31.622C268.21 31.958 267.412 32.126 266.488 32.126Z" fill="white"/>
<path d="M101.612 46.124C102.628 45.308 103.424 44.64 104 44.12C104.576 43.592 105.06 43.044 105.452 42.476C105.852 41.9 106.052 41.336 106.052 40.784C106.052 40.264 105.924 39.856 105.668 39.56C105.42 39.256 105.016 39.104 104.456 39.104C103.912 39.104 103.488 39.276 103.184 39.62C102.888 39.956 102.728 40.408 102.704 40.976H101.648C101.68 40.08 101.952 39.388 102.464 38.9C102.976 38.412 103.636 38.168 104.444 38.168C105.268 38.168 105.92 38.396 106.4 38.852C106.888 39.308 107.132 39.936 107.132 40.736C107.132 41.4 106.932 42.048 106.532 42.68C106.14 43.304 105.692 43.856 105.188 44.336C104.684 44.808 104.04 45.36 103.256 45.992H107.384V46.904H101.612V46.124ZM120.51 38.696V47H119.418V40.808L116.658 47H115.89L113.118 40.796V47H112.026V38.696H113.202L116.274 45.56L119.346 38.696H120.51ZM123.454 38.636V47H122.362V38.636H123.454ZM131.891 47H130.799L126.407 40.34V47H125.315V38.624H126.407L130.799 45.272V38.624H131.891V47ZM136.404 47.084C135.852 47.084 135.356 46.988 134.916 46.796C134.484 46.596 134.144 46.324 133.896 45.98C133.648 45.628 133.52 45.224 133.512 44.768H134.676C134.716 45.16 134.876 45.492 135.156 45.764C135.444 46.028 135.86 46.16 136.404 46.16C136.924 46.16 137.332 46.032 137.628 45.776C137.932 45.512 138.084 45.176 138.084 44.768C138.084 44.448 137.996 44.188 137.82 43.988C137.644 43.788 137.424 43.636 137.16 43.532C136.896 43.428 136.54 43.316 136.092 43.196C135.54 43.052 135.096 42.908 134.76 42.764C134.432 42.62 134.148 42.396 133.908 42.092C133.676 41.78 133.56 41.364 133.56 40.844C133.56 40.388 133.676 39.984 133.908 39.632C134.14 39.28 134.464 39.008 134.88 38.816C135.304 38.624 135.788 38.528 136.332 38.528C137.116 38.528 137.756 38.724 138.252 39.116C138.756 39.508 139.04 40.028 139.104 40.676H137.904C137.864 40.356 137.696 40.076 137.4 39.836C137.104 39.588 136.712 39.464 136.224 39.464C135.768 39.464 135.396 39.584 135.108 39.824C134.82 40.056 134.676 40.384 134.676 40.808C134.676 41.112 134.76 41.36 134.928 41.552C135.104 41.744 135.316 41.892 135.564 41.996C135.82 42.092 136.176 42.204 136.632 42.332C137.184 42.484 137.628 42.636 137.964 42.788C138.3 42.932 138.588 43.16 138.828 43.472C139.068 43.776 139.188 44.192 139.188 44.72C139.188 45.128 139.08 45.512 138.864 45.872C138.648 46.232 138.328 46.524 137.904 46.748C137.48 46.972 136.98 47.084 136.404 47.084ZM150.906 38.636L147.75 47H146.49L143.334 38.636H144.498L147.126 45.848L149.754 38.636H150.906ZM153.196 38.636V47H152.104V38.636H153.196ZM157.661 38.636C158.573 38.636 159.361 38.808 160.025 39.152C160.697 39.488 161.209 39.972 161.561 40.604C161.921 41.236 162.101 41.98 162.101 42.836C162.101 43.692 161.921 44.436 161.561 45.068C161.209 45.692 160.697 46.172 160.025 46.508C159.361 46.836 158.573 47 157.661 47H155.057V38.636H157.661ZM157.661 46.1C158.741 46.1 159.565 45.816 160.133 45.248C160.701 44.672 160.985 43.868 160.985 42.836C160.985 41.796 160.697 40.984 160.121 40.4C159.553 39.816 158.733 39.524 157.661 39.524H156.149V46.1H157.661ZM164.633 39.524V42.32H167.681V43.22H164.633V46.1H168.041V47H163.541V38.624H168.041V39.524H164.633ZM173.486 47.084C172.71 47.084 172.002 46.904 171.362 46.544C170.722 46.176 170.214 45.668 169.838 45.02C169.47 44.364 169.286 43.628 169.286 42.812C169.286 41.996 169.47 41.264 169.838 40.616C170.214 39.96 170.722 39.452 171.362 39.092C172.002 38.724 172.71 38.54 173.486 38.54C174.27 38.54 174.982 38.724 175.622 39.092C176.262 39.452 176.766 39.956 177.134 40.604C177.502 41.252 177.686 41.988 177.686 42.812C177.686 43.636 177.502 44.372 177.134 45.02C176.766 45.668 176.262 46.176 175.622 46.544C174.982 46.904 174.27 47.084 173.486 47.084ZM173.486 46.136C174.07 46.136 174.594 46 175.058 45.728C175.53 45.456 175.898 45.068 176.162 44.564C176.434 44.06 176.57 43.476 176.57 42.812C176.57 42.14 176.434 41.556 176.162 41.06C175.898 40.556 175.534 40.168 175.07 39.896C174.606 39.624 174.078 39.488 173.486 39.488C172.894 39.488 172.366 39.624 171.902 39.896C171.438 40.168 171.07 40.556 170.798 41.06C170.534 41.556 170.402 42.14 170.402 42.812C170.402 43.476 170.534 44.06 170.798 44.564C171.07 45.068 171.438 45.456 171.902 45.728C172.374 46 172.902 46.136 173.486 46.136Z" fill="white"/>
</g>
<defs>
<clipPath id="clip0_2251_8957">
<rect width="298" height="65" rx="5" fill="white"/>
</clipPath>
</defs>
</svg>
