<svg width="165" height="45" viewBox="0 0 165 45" fill="none" xmlns="http://www.w3.org/2000/svg">
<g clip-path="url(#clip0_2251_8936)">
<rect width="165" height="45" rx="5" fill="#005C97"/>
<path d="M130 0H740C742.761 0 745 2.23858 745 5V40C745 42.7614 742.761 45 740 45H113L130 0Z" fill="#0A7AC2"/>
<path opacity="0.5" d="M143.668 30.418H143.494L148.793 22.7097L144.458 15.0015H134.822L143.668 30.418Z" fill="white"/>
<path d="M144.462 15H144.457L148.88 22.7082L144.457 30.4165H135.616L144.462 15Z" fill="white"/>
<path d="M21.56 22.4C21.56 21.3013 21.8053 20.32 22.296 19.456C22.7973 18.5813 23.4747 17.904 24.328 17.424C25.192 16.9333 26.1573 16.688 27.224 16.688C28.472 16.688 29.5653 17.008 30.504 17.648C31.4427 18.288 32.0987 19.1733 32.472 20.304H29.896C29.64 19.7707 29.2773 19.3707 28.808 19.104C28.3493 18.8373 27.816 18.704 27.208 18.704C26.5573 18.704 25.976 18.8587 25.464 19.168C24.9627 19.4667 24.568 19.8933 24.28 20.448C24.0027 21.0027 23.864 21.6533 23.864 22.4C23.864 23.136 24.0027 23.7867 24.28 24.352C24.568 24.9067 24.9627 25.3387 25.464 25.648C25.976 25.9467 26.5573 26.096 27.208 26.096C27.816 26.096 28.3493 25.9627 28.808 25.696C29.2773 25.4187 29.64 25.0133 29.896 24.48H32.472C32.0987 25.6213 31.4427 26.512 30.504 27.152C29.576 27.7813 28.4827 28.096 27.224 28.096C26.1573 28.096 25.192 27.856 24.328 27.376C23.4747 26.8853 22.7973 26.208 22.296 25.344C21.8053 24.48 21.56 23.4987 21.56 22.4ZM39.5693 28.112C38.5239 28.112 37.5639 27.8667 36.6893 27.376C35.8146 26.8853 35.1213 26.208 34.6093 25.344C34.0973 24.4693 33.8413 23.4827 33.8413 22.384C33.8413 21.296 34.0973 20.32 34.6093 19.456C35.1213 18.5813 35.8146 17.8987 36.6893 17.408C37.5639 16.9173 38.5239 16.672 39.5693 16.672C40.6253 16.672 41.5853 16.9173 42.4493 17.408C43.3239 17.8987 44.0119 18.5813 44.5133 19.456C45.0253 20.32 45.2813 21.296 45.2813 22.384C45.2813 23.4827 45.0253 24.4693 44.5133 25.344C44.0119 26.208 43.3239 26.8853 42.4493 27.376C41.5746 27.8667 40.6146 28.112 39.5693 28.112ZM39.5693 26.112C40.2413 26.112 40.8333 25.9627 41.3453 25.664C41.8573 25.3547 42.2573 24.9173 42.5453 24.352C42.8333 23.7867 42.9773 23.1307 42.9773 22.384C42.9773 21.6373 42.8333 20.9867 42.5453 20.432C42.2573 19.8667 41.8573 19.4347 41.3453 19.136C40.8333 18.8373 40.2413 18.688 39.5693 18.688C38.8973 18.688 38.2999 18.8373 37.7773 19.136C37.2653 19.4347 36.8653 19.8667 36.5773 20.432C36.2893 20.9867 36.1453 21.6373 36.1453 22.384C36.1453 23.1307 36.2893 23.7867 36.5773 24.352C36.8653 24.9173 37.2653 25.3547 37.7773 25.664C38.2999 25.9627 38.8973 26.112 39.5693 26.112ZM56.4998 28H54.2598L49.1878 20.336V28H46.9478V16.816H49.1878L54.2598 24.496V16.816H56.4998V28ZM68.2654 28H66.0254L60.9534 20.336V28H58.7134V16.816H60.9534L66.0254 24.496V16.816H68.2654V28ZM72.719 18.64V21.44H76.479V23.216H72.719V26.176H76.959V28H70.479V16.816H76.959V18.64H72.719ZM78.4506 22.4C78.4506 21.3013 78.696 20.32 79.1866 19.456C79.688 18.5813 80.3653 17.904 81.2186 17.424C82.0826 16.9333 83.048 16.688 84.1146 16.688C85.3626 16.688 86.456 17.008 87.3946 17.648C88.3333 18.288 88.9893 19.1733 89.3626 20.304H86.7866C86.5306 19.7707 86.168 19.3707 85.6986 19.104C85.24 18.8373 84.7066 18.704 84.0986 18.704C83.448 18.704 82.8666 18.8587 82.3546 19.168C81.8533 19.4667 81.4586 19.8933 81.1706 20.448C80.8933 21.0027 80.7546 21.6533 80.7546 22.4C80.7546 23.136 80.8933 23.7867 81.1706 24.352C81.4586 24.9067 81.8533 25.3387 82.3546 25.648C82.8666 25.9467 83.448 26.096 84.0986 26.096C84.7066 26.096 85.24 25.9627 85.6986 25.696C86.168 25.4187 86.5306 25.0133 86.7866 24.48H89.3626C88.9893 25.6213 88.3333 26.512 87.3946 27.152C86.4666 27.7813 85.3733 28.096 84.1146 28.096C83.048 28.096 82.0826 27.856 81.2186 27.376C80.3653 26.8853 79.688 26.208 79.1866 25.344C78.696 24.48 78.4506 23.4987 78.4506 22.4ZM98.8759 16.832V18.64H95.8999V28H93.6599V18.64H90.6839V16.832H98.8759Z" fill="white"/>
</g>
<defs>
<clipPath id="clip0_2251_8936">
<rect width="165" height="45" rx="5" fill="white"/>
</clipPath>
</defs>
</svg>
