<svg width="195" height="45" viewBox="0 0 195 45" fill="none" xmlns="http://www.w3.org/2000/svg">
<g clip-path="url(#clip0_2251_9329)">
<rect width="195" height="45" rx="5" fill="#0A7AC2"/>
<path opacity="0.2" d="M160 0H770C772.761 0 775 2.23858 775 5V40C775 42.7614 772.761 45 770 45H143L160 0Z" fill="white"/>
<path opacity="0.5" d="M173.668 30.4178H173.494L178.793 22.7096L174.458 15.0014H164.822L173.668 30.4178Z" fill="white"/>
<path d="M174.462 15H174.457L178.88 22.7082L174.457 30.4165H165.616L174.462 15Z" fill="white"/>
<path d="M24.344 26.224H28.024V28H22.104V16.832H24.344V26.224ZM36.2958 25.872H31.8478L31.1118 28H28.7598L32.7758 16.816H35.3838L39.3998 28H37.0318L36.2958 25.872ZM35.6878 24.08L34.0718 19.408L32.4557 24.08H35.6878ZM48.5009 16.832V18.64H45.5249V28H43.2849V18.64H40.3089V16.832H48.5009ZM52.3753 18.64V21.44H56.1353V23.216H52.3753V26.176H56.6153V28H50.1353V16.816H56.6153V18.64H52.3753ZM62.5069 28.112C61.7282 28.112 61.0242 27.9787 60.3949 27.712C59.7762 27.4453 59.2855 27.0613 58.9229 26.56C58.5602 26.0587 58.3735 25.4667 58.3629 24.784H60.7629C60.7949 25.2427 60.9549 25.6053 61.2429 25.872C61.5415 26.1387 61.9469 26.272 62.4589 26.272C62.9815 26.272 63.3922 26.1493 63.6909 25.904C63.9895 25.648 64.1389 25.3173 64.1389 24.912C64.1389 24.5813 64.0375 24.3093 63.8349 24.096C63.6322 23.8827 63.3762 23.7173 63.0669 23.6C62.7682 23.472 62.3522 23.3333 61.8189 23.184C61.0935 22.9707 60.5015 22.7627 60.0429 22.56C59.5949 22.3467 59.2055 22.032 58.8749 21.616C58.5549 21.1893 58.3949 20.624 58.3949 19.92C58.3949 19.2587 58.5602 18.6827 58.8909 18.192C59.2215 17.7013 59.6855 17.328 60.2829 17.072C60.8802 16.8053 61.5629 16.672 62.3309 16.672C63.4829 16.672 64.4162 16.9547 65.1309 17.52C65.8562 18.0747 66.2562 18.8533 66.3309 19.856H63.8669C63.8455 19.472 63.6802 19.1573 63.3709 18.912C63.0722 18.656 62.6722 18.528 62.1709 18.528C61.7335 18.528 61.3815 18.64 61.1149 18.864C60.8589 19.088 60.7309 19.4133 60.7309 19.84C60.7309 20.1387 60.8269 20.3893 61.0189 20.592C61.2215 20.784 61.4669 20.944 61.7549 21.072C62.0535 21.1893 62.4695 21.328 63.0029 21.488C63.7282 21.7013 64.3202 21.9147 64.7789 22.128C65.2375 22.3413 65.6322 22.6613 65.9629 23.088C66.2935 23.5147 66.4589 24.0747 66.4589 24.768C66.4589 25.3653 66.3042 25.92 65.9949 26.432C65.6855 26.944 65.2322 27.3547 64.6349 27.664C64.0375 27.9627 63.3282 28.112 62.5069 28.112ZM76.0009 16.832V18.64H73.0249V28H70.7849V18.64H67.8089V16.832H76.0009ZM90.9998 28H88.7598L83.6878 20.336V28H81.4478V16.816H83.6878L88.7598 24.496V16.816H90.9998V28ZM95.4534 18.64V21.44H99.2134V23.216H95.4534V26.176H99.6934V28H93.2134V16.816H99.6934V18.64H95.4534ZM116.657 16.832L113.537 28H110.897L108.801 20.048L106.609 28L103.985 28.016L100.977 16.832H103.377L105.345 25.504L107.617 16.832H110.113L112.257 25.456L114.241 16.832H116.657ZM121.976 28.112C121.197 28.112 120.493 27.9787 119.864 27.712C119.245 27.4453 118.754 27.0613 118.392 26.56C118.029 26.0587 117.842 25.4667 117.832 24.784H120.232C120.264 25.2427 120.424 25.6053 120.712 25.872C121.01 26.1387 121.416 26.272 121.928 26.272C122.45 26.272 122.861 26.1493 123.16 25.904C123.458 25.648 123.608 25.3173 123.608 24.912C123.608 24.5813 123.506 24.3093 123.304 24.096C123.101 23.8827 122.845 23.7173 122.536 23.6C122.237 23.472 121.821 23.3333 121.288 23.184C120.562 22.9707 119.97 22.7627 119.512 22.56C119.064 22.3467 118.674 22.032 118.344 21.616C118.024 21.1893 117.864 20.624 117.864 19.92C117.864 19.2587 118.029 18.6827 118.36 18.192C118.69 17.7013 119.154 17.328 119.752 17.072C120.349 16.8053 121.032 16.672 121.8 16.672C122.952 16.672 123.885 16.9547 124.6 17.52C125.325 18.0747 125.725 18.8533 125.8 19.856H123.336C123.314 19.472 123.149 19.1573 122.84 18.912C122.541 18.656 122.141 18.528 121.64 18.528C121.202 18.528 120.85 18.64 120.584 18.864C120.328 19.088 120.2 19.4133 120.2 19.84C120.2 20.1387 120.296 20.3893 120.488 20.592C120.69 20.784 120.936 20.944 121.224 21.072C121.522 21.1893 121.938 21.328 122.472 21.488C123.197 21.7013 123.789 21.9147 124.248 22.128C124.706 22.3413 125.101 22.6613 125.432 23.088C125.762 23.5147 125.928 24.0747 125.928 24.768C125.928 25.3653 125.773 25.92 125.464 26.432C125.154 26.944 124.701 27.3547 124.104 27.664C123.506 27.9627 122.797 28.112 121.976 28.112Z" fill="white"/>
</g>
<defs>
<clipPath id="clip0_2251_9329">
<rect width="195" height="45" rx="5" fill="white"/>
</clipPath>
</defs>
</svg>
